<svg width="147" height="40" viewBox="0 0 147 40" fill="none" xmlns="http://www.w3.org/2000/svg">
<g clip-path="url(#clip0)">
<path d="M13.6289 10.3002C13.6199 10.3139 13.6109 10.3276 13.6019 10.3413C13.1426 10.9663 13.6199 11.8605 14.3943 11.8605H17.2894V21.4955H13.1291V39.2327C7.60911 39.2327 3.13369 34.698 3.13369 29.105V21.4955H0V11.8605C1.6659 11.8605 3.07967 10.6469 3.37683 8.98637C4.47542 2.91429 9.2435 -0.393197 17.2894 0.035635V0.373226C17.2894 4.0183 15.8351 7.41246 13.6289 10.3002Z" fill="#030A8C"/>
<path d="M24.8759 35.8393C22.0664 33.0473 20.6617 29.6531 20.6617 25.5473C20.6617 21.4414 22.0664 18.0473 24.8759 15.2553C27.6855 12.4633 31.1433 11.0947 35.1955 11.0947C39.2477 11.0947 42.7056 12.4633 45.5151 15.2553C48.3246 18.0473 49.7294 21.4414 49.7294 25.5473C49.7294 29.6531 48.3246 33.0473 45.5151 35.8393C42.7056 38.6312 39.2477 39.9998 35.1955 39.9998C31.1433 39.9998 27.7395 38.6312 24.8759 35.8393ZM35.1955 30.3648C36.5462 30.3648 37.6268 29.9268 38.4373 29.0509C39.3017 28.1203 39.734 26.9706 39.734 25.5473C39.734 24.1239 39.3017 22.9743 38.4373 22.0984C37.6268 21.1677 36.5462 20.7298 35.1955 20.7298C33.8448 20.7298 32.7642 21.1677 31.8997 22.0984C31.0893 22.9743 30.6571 24.1239 30.6571 25.5473C30.6571 26.9706 31.0893 28.1203 31.8997 29.0509C32.7642 29.9268 33.8448 30.3648 35.1955 30.3648Z" fill="#030A8C"/>
<path d="M63.6554 17.1716C64.682 13.449 67.8697 11.314 71.7598 11.314V13.0019C71.7598 17.2537 69.5896 21.1315 66.1362 23.5448C66.1182 23.5539 66.1047 23.5676 66.0867 23.5813C64.4658 24.7309 63.6554 26.5375 63.6554 29.0557V39.2337C58.1354 39.2337 53.66 34.699 53.66 29.1059V11.8614H63.6554V17.1716Z" fill="#030A8C"/>
<path d="M116.455 22.5911V29.1057C116.455 34.6987 111.98 39.2334 106.46 39.2334V23.9597C106.46 21.8794 105.542 20.8393 103.705 20.8393C101.597 20.8393 100.517 22.2079 100.517 24.8903V39.2334H90.5215V23.9597C90.5215 21.8794 89.603 20.8393 87.766 20.8393C85.6588 20.8393 84.5782 22.2079 84.5782 24.8903V39.2334H74.5828V21.9889C74.5828 16.3958 79.0583 11.8611 84.5782 11.8611V14.4341C86.3612 12.1896 88.7925 11.0947 91.9262 11.0947C95.0059 11.0947 97.2751 12.2444 98.6799 14.4889C100.625 12.2444 103.218 11.0947 106.46 11.0947C112.727 11.0947 116.455 15.2006 116.455 22.5911Z" fill="#030A8C"/>
<path d="M119.661 39.2332C119.661 34.0964 121.57 29.142 125.01 25.3692L131.98 17.7186L132.898 16.6785C133.763 15.8026 133.925 15.6383 134.411 15.0361C135.114 14.215 135.384 13.6128 135.384 12.8464C135.384 11.5872 134.519 10.6566 132.844 10.6566C130.845 10.6566 129.332 11.9704 128.36 14.5434L118.851 9.28796C121.39 3.21132 126.631 0.0361328 132.682 0.0361328C136.41 0.0361328 139.544 1.13102 142.191 3.26606C144.839 5.4011 146.19 8.30256 146.19 12.0799C146.19 14.3792 145.703 16.4047 144.677 18.1018C143.704 19.7989 142.137 21.8792 140.03 24.288L136.194 28.6128H136.518C142.308 28.6128 147 33.3664 147 39.2332H119.661Z" fill="#030A8C"/>
</g>
<defs>
<clipPath id="clip0">
<rect width="147" height="40" fill="white"/>
</clipPath>
</defs>
</svg>
