<svg width="100" height="100" viewBox="0 0 100 100" fill="none" xmlns="http://www.w3.org/2000/svg">
<path d="M50 -0.00012207C22.3858 -0.00012207 0 22.3856 0 49.9999C0 77.6143 22.3859 99.9999 50 99.9999C77.6144 99.9999 100 77.6142 100 49.9999C100 22.3856 77.6144 -0.00012207 50 -0.00012207ZM10.7437 50.5211L49.4787 89.2561C28.2088 88.9789 11.0209 71.791 10.7437 50.5211ZM58.7876 88.2746L11.7253 41.2123C15.7159 23.759 31.3369 10.7371 50 10.7371C63.0459 10.7371 74.6035 17.1015 81.7433 26.893L76.3071 31.6897C70.5155 23.3842 60.8932 17.9486 50 17.9486C36.1308 17.9486 24.3201 26.7582 19.8559 39.0865L60.9135 80.144C70.8844 76.5333 78.5528 68.1165 81.1211 57.6922H64.1026V50H82.0513V49.9998H89.2628V49.9999C89.2628 68.663 76.241 84.2839 58.7876 88.2746Z" fill="#744C9E"/>
</svg>
