<svg width="100" height="114" viewBox="0 0 100 114" fill="none" xmlns="http://www.w3.org/2000/svg">
<path d="M95.2569 101.851C95.0775 101.969 94.8919 102.028 94.6992 102.028C94.4137 102.028 94.1661 101.926 93.9577 101.722C93.7485 101.518 93.6441 101.249 93.6441 100.918C93.6441 100.608 93.7342 100.344 93.9144 100.126C94.0938 99.9079 94.3405 99.799 94.6532 99.799C94.8527 99.799 95.0253 99.8401 95.1717 99.9221C95.4103 100.056 95.5585 100.289 95.616 100.622L95.136 100.614C95.107 100.459 95.0458 100.356 94.9522 100.303C94.8736 100.253 94.7875 100.228 94.6943 100.228C94.5529 100.228 94.4369 100.287 94.3468 100.403C94.2566 100.519 94.2116 100.695 94.2116 100.929C94.2116 101.162 94.2611 101.331 94.361 101.436C94.4605 101.542 94.5801 101.594 94.7193 101.594C94.8473 101.594 94.9441 101.559 95.0097 101.49C95.0748 101.42 95.1177 101.332 95.136 101.227H95.6031C95.5522 101.524 95.4371 101.732 95.2569 101.851ZM93.5473 99.8222C93.2475 100.129 93.0976 100.492 93.0976 100.913C93.0976 101.349 93.2501 101.719 93.5553 102.023C93.8587 102.329 94.2245 102.481 94.6532 102.481C95.0811 102.481 95.446 102.327 95.7485 102.021C96.0519 101.713 96.2031 101.344 96.2031 100.913C96.2031 100.494 96.0528 100.13 95.7512 99.8222C95.4469 99.509 95.0811 99.3524 94.6532 99.3524C94.2209 99.3524 93.8524 99.509 93.5473 99.8222ZM95.9707 102.263C95.6048 102.618 95.1654 102.794 94.6532 102.794C94.1241 102.794 93.6775 102.613 93.3157 102.251C92.9521 101.888 92.771 101.442 92.771 100.913C92.771 100.363 92.9673 99.9056 93.3581 99.5416C93.7262 99.2007 94.158 99.0308 94.6532 99.0308C95.1725 99.0308 95.616 99.2141 95.9836 99.5826C96.3512 99.9498 96.5355 100.393 96.5355 100.913C96.5355 101.447 96.3472 101.897 95.9707 102.263Z" fill="#59473D"/>
<path d="M99.9934 82.0596C99.9862 81.8708 99.9697 81.6906 99.9487 81.5215C99.9349 81.4091 99.9139 81.2976 99.8858 81.1891C99.839 80.938 99.7814 80.6886 99.6971 80.4517L99.6953 80.4472C99.5218 79.9547 99.2532 79.4822 98.9084 79.0838C98.5648 78.6863 98.1535 78.3714 97.7417 78.1536L97.7283 78.1461C97.2893 77.9159 96.8579 77.7878 96.4667 77.7129C96.3516 77.6919 96.2445 77.6812 96.1374 77.6691C96.6375 75.5264 96.0116 73.8904 95.607 73.1252C95.6382 73.0949 95.6712 73.065 95.7011 73.036C96.2351 72.5203 96.6888 72.0269 97.0707 71.5312L97.143 71.4322C97.4504 70.9914 97.6529 70.5399 97.7823 70.1254C97.8929 69.7694 97.9474 69.4473 97.9795 69.1533L97.9831 69.1537L97.9862 69.1359L97.988 69.094L98.0005 69.0034H97.9933L97.9987 68.9017H98.0014L98.0027 68.841C98.0049 68.7808 98.0063 68.7188 98.0063 68.6527C98.0094 68.5314 98.0089 68.4056 98.0027 68.2673C97.9733 67.6039 97.8532 66.7411 97.4174 65.8068C97.1997 65.3415 96.899 64.8628 96.4983 64.4194C96.0999 63.9768 95.6025 63.5735 95.031 63.2545L95.0341 63.2558C94.9926 63.2326 94.9601 63.2103 94.9217 63.188C93.735 61.4405 92.3792 60.0861 91.1773 59.0582C90.5536 58.5255 89.9718 58.0807 89.4757 57.718C88.9845 57.357 88.5705 57.072 88.3399 56.9011L88.3421 56.9024C87.8134 56.5147 87.4204 56.2814 87.2321 56.1752C86.7989 55.912 86.4768 55.7019 86.2823 55.5551C86.1306 55.4404 86.0565 55.3668 86.0289 55.3365L86.0142 55.3173C86.0115 55.3133 85.995 55.2807 85.9722 55.1638C85.9477 55.047 85.9218 54.8475 85.9102 54.5589C85.8901 54.1052 85.9057 53.4409 85.9557 52.5638C86.0347 51.1535 86.1953 49.207 86.3608 46.569C86.4157 45.7303 86.4237 44.9402 86.3929 44.1952C86.3434 43.0008 86.189 41.919 85.9392 40.9384L85.9383 40.933C85.8834 40.7099 85.8196 40.4909 85.7527 40.275L85.7518 40.2732L85.7505 40.2705C85.7001 40.1094 85.6559 39.9881 85.6287 39.9105L85.6305 39.9149C85.5801 39.7713 85.5279 39.6294 85.4703 39.4853L85.4685 39.4791C85.44 39.409 85.4038 39.3184 85.3561 39.206L85.3552 39.2033L85.3543 39.2016C85.2638 38.9892 85.1611 38.7608 85.0309 38.5145L84.9961 38.4489L84.9309 38.3325L84.8845 38.2544C84.6441 37.8587 84.3898 37.4978 84.1239 37.1618C83.99 36.5551 83.7567 35.6579 83.3699 34.638C83.0264 33.7404 82.566 32.7446 81.9115 31.7623C81.6844 31.4241 81.4261 31.0886 81.1432 30.7602L81.2374 30.6625C81.3694 30.5242 84.5138 27.2313 86.976 22.9582C91.5645 14.9934 90.037 10.1238 87.9486 7.44162L87.8893 7.36667L87.8264 7.29618C85.8125 5.05792 83.0741 3.70926 79.6862 3.28855C72.6698 2.41591 64.7353 5.85874 62.6549 6.838L58.8731 2.66039L58.8588 2.64478C58.5242 2.27716 58.153 1.94881 57.755 1.6606C57.3544 1.37151 56.9252 1.12256 56.4751 0.913772C55.5712 0.494404 54.5799 0.232077 53.5243 0.100913C51.4079 -0.15963 49.0318 0.0933286 46.4473 0.75584C42.574 1.75518 38.2237 3.69007 33.6767 6.41774C29.1319 9.14631 24.3957 12.6708 19.7974 16.8649C14.1783 21.9897 9.53673 27.408 6.15503 32.5506C4.46551 35.1225 3.08963 37.6258 2.06709 40.0001C1.04678 42.3758 0.37579 44.6217 0.117031 46.6998C-0.0703456 48.2104 -0.0404546 49.6376 0.262917 50.9532C0.394974 51.5287 0.585027 52.0815 0.829063 52.6052C1.1418 53.2785 1.54645 53.9026 2.04969 54.4549L2.06218 54.4683L6.46241 59.0769L6.43699 59.1206C6.38925 59.204 6.34464 59.2884 6.29779 59.3727C6.22998 59.4976 6.16172 59.6225 6.09658 59.7488C6.05286 59.8353 6.01003 59.9214 5.96854 60.0084C5.90564 60.1374 5.84452 60.2654 5.78474 60.3961C5.74458 60.4836 5.70622 60.5714 5.66829 60.6602C5.6103 60.7923 5.55453 60.9257 5.50144 61.0604C5.46619 61.1487 5.43184 61.2375 5.3966 61.3267C5.34529 61.4628 5.29666 61.602 5.24759 61.7399C5.21725 61.8295 5.18602 61.9192 5.15702 62.0093C5.11107 62.1503 5.06869 62.2922 5.02631 62.4354C5.01426 62.4751 5.00132 62.5135 4.98972 62.5532C4.97545 62.6036 4.96206 62.6549 4.94823 62.7053C4.90719 62.8516 4.8715 62.9998 4.83536 63.1479C4.81394 63.2362 4.79075 63.325 4.77022 63.4151C4.75639 63.4802 4.74256 63.5445 4.72918 63.6101C4.70999 63.7015 4.69349 63.793 4.6752 63.8853C4.65958 63.9683 4.64129 64.0517 4.62701 64.1352C4.59445 64.3212 4.56723 64.5104 4.54091 64.6982C4.53422 64.754 4.52351 64.8079 4.51682 64.8642L4.51503 64.8798L4.51057 64.9302C4.49585 65.0529 4.48514 65.1765 4.4722 65.3014C4.45391 65.4954 4.4383 65.6904 4.42804 65.8871C4.42179 65.9728 4.41778 66.0607 4.41376 66.1481C4.41108 66.2155 4.40618 66.282 4.4035 66.3502C4.39993 66.4872 4.40172 66.6255 4.40082 66.7651C4.40082 66.8477 4.39993 66.9307 4.40082 67.015C4.40172 67.0649 4.39993 67.114 4.40082 67.164V67.1921C4.4035 67.2813 4.40707 67.371 4.4093 67.4593C4.41376 67.5575 4.42268 67.6534 4.42893 67.7502C4.43294 67.8225 4.43473 67.8948 4.43919 67.9661C4.44544 68.0299 4.44856 68.0781 4.45302 68.1196C4.46105 68.2106 4.46953 68.303 4.47934 68.3935C4.48871 68.4984 4.50031 68.6099 4.51593 68.7375L4.51682 68.7482V68.7464C4.52351 68.7964 4.52886 68.8294 4.53422 68.8687C4.54805 68.9717 4.56455 69.0757 4.58017 69.1783C4.59266 69.2706 4.60917 69.3741 4.63014 69.5035C4.6404 69.5548 4.64843 69.5981 4.65601 69.6365C4.66761 69.6989 4.68055 69.7609 4.6926 69.8221L4.69349 69.827L4.69527 69.8354L4.71178 69.9144C4.72739 69.9996 4.74925 70.1067 4.78182 70.253C4.79075 70.2923 4.79744 70.3186 4.80502 70.3516C4.82867 70.4449 4.84607 70.5145 4.859 70.564L4.88176 70.6586C4.88979 70.6893 4.89737 70.7179 4.90808 70.7621L4.93083 70.8491L4.95046 70.9218L4.96742 70.9878C4.97678 71.0208 4.98392 71.0436 4.99284 71.0735L5.01694 71.1631C5.0379 71.2332 5.0611 71.3019 5.08207 71.3719C5.1075 71.4531 5.13962 71.5615 5.18691 71.7065L5.17888 71.6829L5.18781 71.7101C5.19896 71.7449 5.20788 71.7677 5.21814 71.7967C5.26008 71.9171 5.29399 72.0095 5.31049 72.0572L5.31317 72.0626V72.0634C5.34083 72.1424 5.38187 72.258 5.43943 72.4083L5.44032 72.4105L5.44121 72.4141L5.44032 72.4105L5.44523 72.4244L5.443 72.4177L5.46843 72.4797C5.50501 72.5725 5.53401 72.6443 5.5581 72.6992L5.58665 72.7697L5.59111 72.7808C5.60583 72.8165 5.62591 72.8647 5.64956 72.9205C5.67142 72.9727 5.69729 73.0338 5.72808 73.1038L5.7254 73.098L5.75663 73.1654C5.78563 73.2296 5.8124 73.2903 5.83693 73.3394C5.86013 73.3871 5.88021 73.43 5.89672 73.4648L5.89448 73.459L5.89761 73.4665L5.90028 73.4723L5.89761 73.4665C5.93464 73.5437 5.97925 73.6428 6.04171 73.7659L6.04662 73.7775L6.05019 73.7837L6.07651 73.8355C6.10328 73.8859 6.12871 73.9354 6.15146 73.9783C6.18358 74.0394 6.21302 74.0916 6.23578 74.1357L6.24024 74.1456C6.27415 74.2071 6.32144 74.2977 6.38568 74.4137L6.39014 74.4213L6.3946 74.4302L6.42137 74.4748C6.44769 74.5217 6.47312 74.5663 6.49721 74.6064C6.53826 74.676 6.57663 74.738 6.60652 74.7902L6.61589 74.8045L6.61767 74.809C6.6489 74.8594 6.69664 74.9397 6.764 75.0476L6.77025 75.0579L6.78943 75.0891C6.82245 75.1409 6.85457 75.1909 6.88401 75.2359C6.9322 75.3073 6.97502 75.372 7.01161 75.4273L7.00536 75.4179C7.04551 75.4773 7.10039 75.5616 7.17534 75.6678L7.18114 75.6767L7.18471 75.6834L7.17802 75.6722L7.1856 75.6838L7.19185 75.6923L7.19006 75.691L7.19274 75.6945L7.19363 75.6954C7.22932 75.7458 7.26501 75.7954 7.3007 75.8453C7.35022 75.9145 7.39751 75.9783 7.43945 76.0345L7.43677 76.0305C7.47693 76.0849 7.52734 76.1532 7.58801 76.2335L7.6014 76.2509C7.64735 76.3107 7.69107 76.366 7.7339 76.4204C7.78967 76.49 7.84276 76.5551 7.89228 76.6158L7.90879 76.6368C7.94269 76.6778 7.98195 76.7265 8.03504 76.7889L8.05869 76.817L8.05779 76.8175L8.06583 76.8273L8.07966 76.842C8.15907 76.9352 8.23045 77.0151 8.30183 77.095L8.37767 77.182L8.37857 77.1833L8.38169 77.1864L8.38749 77.1922L8.3857 77.1909C8.4214 77.2301 8.46467 77.2797 8.51865 77.3368L8.53561 77.356L8.53605 77.3573L8.53873 77.3595L8.54944 77.3702L8.54676 77.3676C8.63286 77.4608 8.71718 77.5465 8.80195 77.6326C8.83675 77.6678 8.87155 77.7066 8.90679 77.741L8.91081 77.745C8.9291 77.7624 8.97014 77.8052 9.03662 77.8717L9.04955 77.8833L9.08748 77.923C9.18964 78.0229 9.29627 78.1193 9.40155 78.2165L9.42609 78.2406L9.43278 78.246L9.43546 78.2487L9.43903 78.2522C9.46624 78.2763 9.50952 78.3165 9.57242 78.3731L9.57912 78.3803C9.7143 78.4998 9.85037 78.6163 9.98555 78.7287L9.99313 78.7354L10.0699 78.7988L10.1221 78.8411L10.1203 78.8394L10.1988 78.9014C10.313 78.9928 10.4254 79.0816 10.5334 79.1641L10.5637 79.1882L10.578 79.1985C10.6195 79.2293 10.6498 79.2516 10.6668 79.265L10.6878 79.2815L10.7043 79.2926C10.7355 79.3154 10.7667 79.3372 10.7993 79.3604C10.8952 79.4296 10.9907 79.4974 11.0875 79.5639L11.1687 79.621L11.1781 79.6277L11.2784 79.6959L11.2829 79.6977L11.3342 79.7307C11.4319 79.7968 11.5363 79.8615 11.6398 79.9279C11.6942 79.9627 11.7438 79.9957 11.8004 80.0301L11.8883 80.0836L11.9378 80.1126L11.9704 80.1318C12.1315 80.2286 12.2831 80.3161 12.4214 80.3923L12.4348 80.399L12.5209 80.4459L12.5272 80.4503C12.7186 80.5525 12.901 80.6462 13.0732 80.7319L13.1031 80.7461L13.1973 80.7912L13.1982 80.7903C13.2914 80.8354 13.382 80.8746 13.4743 80.9161C13.5172 80.9362 13.5613 80.9563 13.605 80.9754C13.6572 80.9991 13.7121 81.0268 13.7643 81.0491L13.8089 81.0682L13.8219 81.0736L13.8428 81.083C13.9325 81.1209 14.0204 81.153 14.1087 81.1891L14.1538 81.2061C14.2533 81.2463 14.3528 81.2882 14.4518 81.3257L14.4755 81.3341L14.5486 81.3605C14.595 81.377 14.6428 81.3917 14.6896 81.4086L14.7333 81.4234C14.8752 81.4742 15.0175 81.5255 15.1621 81.5715L15.196 81.5822L15.2085 81.5862L15.2134 81.5889C15.4355 81.658 15.6577 81.7218 15.879 81.7816L15.8879 81.7838L15.9254 81.7932L15.9125 81.7905C16.1083 81.8418 16.301 81.886 16.492 81.9288H16.4942L16.5652 81.9476L16.6392 81.9632C16.8212 82.0029 17.0068 82.035 17.1938 82.0676L17.2464 82.0819L17.378 82.1019C17.4904 82.1202 17.6029 82.135 17.7153 82.1501C17.7327 82.197 17.7492 82.2425 17.7639 82.2822L17.7657 82.2884C18.0731 83.1276 18.4064 83.9623 18.7642 84.7904C24.0419 99.3955 38.6315 110.718 55.2794 112.787C71.9283 114.857 89.6997 103.792 96.94 88.8386C97.2519 88.2666 97.5369 87.7054 97.7966 87.1616C98.5144 86.4223 99.0721 85.6559 99.4424 84.843C99.8858 83.8878 100.035 82.8822 99.9934 82.0596Z" fill="#59473D"/>
<path d="M85.3525 39.198L85.3543 39.202L85.3552 39.2033L85.3525 39.198Z" fill="#59473D"/>
<path d="M11.8982 80.0883L11.8928 80.083H11.8875L11.8982 80.0883Z" fill="#59473D"/>
<path d="M7.17432 75.6677L7.17967 75.6785V75.6704L7.17432 75.6677Z" fill="#59473D"/>
<path d="M7.17708 75.6716L7.17797 75.6721L7.17529 75.6689L7.17708 75.6716Z" fill="#59473D"/>
<path d="M4.96911 70.9944L4.96732 70.9877L4.96643 70.9863L4.96911 70.9944Z" fill="#59473D"/>
<path d="M4.78222 70.2563L4.78178 70.2536L4.78088 70.2527L4.78222 70.2563Z" fill="#59473D"/>
<path d="M7.60374 76.2536L7.60909 76.2603L7.60151 76.2509L7.59705 76.2451L7.60374 76.2536Z" fill="#59473D"/>
<path d="M85.7536 9.06913C84.9475 8.17284 84.0151 7.49739 83.0019 6.99727C82.8149 6.92812 82.6271 6.85942 82.4344 6.80365C82.3403 6.74119 82.2443 6.6823 82.1471 6.62475C81.2512 6.28167 80.3032 6.05771 79.328 5.93235C74.491 5.30999 68.9843 7.07088 65.835 8.3214C65.6624 8.39368 65.4884 8.4655 65.3122 8.54045C65.0476 8.65333 64.7808 8.76843 64.5105 8.88755C64.0567 9.08742 63.5977 9.29665 63.1279 9.51526C63.0596 9.54649 62.9918 9.57906 62.924 9.61118L61.6833 8.16972L61.3277 7.75615L61.1743 7.5768L57.9282 3.80785L57.6462 3.48039L57.2973 3.07574L57.2353 3.08957L56.3172 3.29747L55.2567 3.53749C54.6705 3.26535 53.9741 3.07128 53.1679 2.9709C51.5533 2.76746 49.5034 2.95439 47.1678 3.55802C44.8323 4.15762 42.2135 5.16589 39.4363 6.54891C33.8815 9.31316 27.6976 13.5733 21.747 19.0019C19.6707 20.8953 17.7345 22.8297 15.9544 24.77C14.2252 26.6522 12.6441 28.5407 11.2254 30.4029C8.34425 34.1843 6.13588 37.8623 4.72564 41.1431C3.78385 43.3292 3.2012 45.3377 2.98839 47.0567C2.83135 48.3063 2.8724 49.3993 3.08163 50.3023C3.14945 50.5945 3.23912 50.86 3.34039 51.1138C3.55097 51.6474 3.82757 52.1074 4.18493 52.5013L7.78524 56.2729L8.17115 56.6767L8.19658 56.6495C8.30633 56.5223 8.41875 56.3956 8.53296 56.2716L8.5633 56.2386C8.60479 56.194 8.64807 56.152 8.68956 56.1092C8.79752 55.9963 8.90682 55.8834 9.01836 55.7733C9.08751 55.705 9.15755 55.6394 9.22804 55.5729C9.29675 55.5082 9.36322 55.4413 9.43282 55.3775C9.46449 55.349 9.49661 55.3227 9.52874 55.2941C9.6019 55.2276 9.67775 55.1625 9.75359 55.0969C9.85888 55.0059 9.96461 54.9158 10.0735 54.827C10.1368 54.7752 10.2006 54.7239 10.2649 54.6726L10.293 54.6508C10.4072 54.5611 10.5232 54.4732 10.6387 54.3867C10.7119 54.3318 10.7855 54.2783 10.8596 54.2247C10.9796 54.1395 11.1023 54.0547 11.2254 53.9718C11.2994 53.9222 11.3726 53.8727 11.4476 53.8241C11.5738 53.742 11.7028 53.6621 11.8317 53.5836C11.9071 53.5381 11.9798 53.4926 12.0548 53.4493C12.1899 53.3699 12.3269 53.295 12.4634 53.22C12.5366 53.1808 12.6084 53.1397 12.6816 53.1013L12.7637 53.0581L12.7762 53.0509C12.8922 52.9911 13.0108 52.9358 13.1286 52.8792C13.1946 52.8475 13.258 52.8145 13.3253 52.7837C13.4239 52.7369 13.5248 52.694 13.6252 52.6503C13.7121 52.6124 13.7983 52.5736 13.8866 52.537L13.9838 52.4942C14.206 52.4036 14.43 52.3179 14.6566 52.2376C14.728 52.2118 14.8021 52.1899 14.8743 52.1649C14.952 52.139 15.0296 52.1127 15.109 52.0877L15.2005 52.0565C15.2473 52.0422 15.2946 52.0262 15.3405 52.0123C15.4374 51.9838 15.5351 51.9583 15.6314 51.9302L15.7033 51.9106C15.8157 51.8789 15.9272 51.8477 16.0405 51.8192C16.1458 51.7919 16.252 51.7692 16.3586 51.7446C16.4902 51.7143 16.6218 51.6844 16.7539 51.6572C16.8092 51.6465 16.8641 51.6345 16.9194 51.6237C16.9747 51.6135 17.0318 51.6055 17.0876 51.5952C17.2174 51.572 17.3482 51.5497 17.4784 51.5296C17.594 51.5122 17.7091 51.497 17.8242 51.481C17.9174 51.4694 18.0089 51.4564 18.1017 51.4462C18.1396 51.4422 18.1771 51.439 18.2145 51.4359C18.2574 51.431 18.298 51.4248 18.3408 51.4212L18.4104 51.4172C18.8721 51.3989 19.3767 51.4025 19.9295 51.4435L20.0138 51.4489C20.5715 51.4948 21.1747 51.5831 21.8082 51.7174C21.9594 51.75 22.1102 51.7812 22.2663 51.8192C22.2985 51.7598 22.3315 51.6987 22.3641 51.6394C22.6995 51.0375 23.0386 50.4509 23.3817 49.8745C25.3866 46.5133 27.537 43.575 29.732 41.0133C30.4806 40.1384 31.2359 39.3055 31.9912 38.5158C35.1396 35.2283 38.3063 32.6679 41.2017 30.6911C41.845 30.2521 42.4749 29.8416 43.0884 29.458C43.924 28.9364 44.7284 28.4649 45.4935 28.041C46.1167 27.6957 46.7141 27.3816 47.2812 27.0966C48.2265 26.621 49.0876 26.2266 49.8447 25.9023C50.0793 25.8019 50.3046 25.7077 50.5174 25.6212C50.848 25.4865 51.1536 25.3669 51.4307 25.2629C51.192 25.238 50.9497 25.2188 50.7021 25.2058C50.4715 25.1938 50.2368 25.1893 49.9999 25.1889C49.9401 25.1884 49.8812 25.1893 49.8215 25.1893C49.5823 25.1925 49.341 25.1983 49.0965 25.2134C48.6325 25.2411 48.1587 25.2897 47.6733 25.366C47.5114 25.3914 47.3485 25.42 47.1839 25.4526C48.3889 24.8289 49.5779 24.3604 50.7249 24.0084C51.4873 23.7742 52.2324 23.5904 52.9475 23.4507C53.9339 23.2602 54.8664 23.1496 55.7265 23.0934C56.3034 23.0564 56.8463 23.043 57.3491 23.0474C57.855 23.0523 58.3203 23.0742 58.7388 23.1054C60.2008 23.2152 61.0819 23.4387 61.0819 23.4387C60.8745 23.1465 60.613 22.8917 60.3288 22.6696C59.8113 22.2685 59.2153 21.9812 58.6924 21.7777C58.4867 21.6979 58.2909 21.6283 58.1187 21.5743C57.9817 21.5315 57.8541 21.4944 57.7488 21.4659C57.9955 21.4235 58.2387 21.3878 58.4787 21.3557C58.7335 21.3213 58.9855 21.2919 59.2327 21.2683C61.3398 21.0711 63.1823 21.2526 64.5667 21.5096C66.2361 21.8183 67.2413 22.2381 67.2413 22.2381C67.0035 21.7742 66.6506 21.378 66.2647 21.0438C65.9832 20.8011 65.686 20.5901 65.4018 20.4152C65.9613 20.5446 66.4931 20.6887 66.9986 20.8431C68.3334 21.2509 69.4688 21.7251 70.362 22.1556C70.6511 22.2953 70.9156 22.4295 71.153 22.5567C71.2208 22.5928 71.2828 22.6267 71.3457 22.6615C72.163 23.1077 72.615 23.428 72.615 23.428C72.4784 22.9471 72.2009 22.4929 71.877 22.0851C71.7958 21.983 71.7133 21.8817 71.6286 21.7862L71.6678 21.8041C71.6977 21.8139 71.7619 21.834 71.8512 21.8643C71.9163 21.8861 71.9948 21.9134 72.089 21.9473C72.4445 22.0766 72.9884 22.2939 73.6277 22.6116C73.658 22.6263 73.6897 22.6423 73.7209 22.658C73.8075 22.7026 73.8963 22.7476 73.985 22.7949C74.2045 22.9105 74.4312 23.039 74.6627 23.1768C74.8782 23.3053 75.0986 23.4432 75.3199 23.5922C75.4341 23.6689 75.5478 23.7479 75.6621 23.83C75.9061 24.0048 76.1483 24.1927 76.3888 24.3934C76.6346 24.5991 76.8769 24.819 77.1115 25.0524C77.1575 25.0988 77.2048 25.1443 77.2507 25.1925C77.4221 25.3682 77.5871 25.5534 77.7464 25.7457C78.0498 26.1079 78.3304 26.4992 78.5798 26.9203C78.8782 27.4254 79.133 27.9705 79.323 28.5639C79.3333 28.5974 79.3422 28.6322 79.3516 28.6656C79.4895 28.5175 79.7326 28.2512 80.0489 27.888C82.6771 24.8668 90.4162 15.0558 85.7536 9.06913Z" fill="#141C26"/>
<path d="M97.3185 82.3679L97.3198 82.3675C97.3198 82.3675 97.4108 81.688 97.0517 81.0804L97.0436 81.0639C97.0227 81.0273 97.0004 80.9947 96.9776 80.9622L96.954 80.9269C96.9147 80.8738 96.867 80.823 96.8179 80.7717C96.73 80.6793 96.6274 80.5928 96.5052 80.5156C96.4418 80.4736 96.3727 80.4353 96.2986 80.3987C96.0947 80.3014 95.8507 80.2274 95.5607 80.185C95.3488 80.1542 95.1065 80.1453 94.8429 80.1533C94.7362 80.1569 94.6309 80.1591 94.5158 80.1698L94.4636 80.173C94.4636 80.173 94.4717 80.2011 94.4828 80.243C94.4949 80.2872 94.5114 80.351 94.5341 80.4353C94.5422 80.4683 94.5506 80.5026 94.5605 80.5406C94.5979 80.6909 94.643 80.8819 94.6889 81.0978C94.6885 81.0996 94.6756 81.1415 94.6417 81.2205L94.6238 81.2624C94.4918 81.5694 94.1326 82.2783 93.3327 83.2004C93.1966 83.357 93.0458 83.5212 92.8839 83.6898C90.6523 85.9955 85.8229 89.2786 75.6622 91.1153C72.2144 91.6016 69.0357 91.6284 66.3205 91.2906C62.3058 90.7914 59.2975 89.5088 57.8979 87.784C57.7766 87.6359 57.6655 87.4833 57.5598 87.3294C57.4817 87.2156 57.4063 87.1005 57.3367 86.9841C57.3117 86.9413 57.289 86.8975 57.2644 86.8547C56.663 85.7916 56.4012 84.6325 56.4159 83.51C56.4351 82.1471 56.8602 80.843 57.5798 79.8406C58.1638 79.0277 58.9401 78.4134 59.848 78.1296C60.2932 77.9909 60.7693 77.9284 61.2694 77.9623C61.3702 77.9695 61.5036 77.9838 61.67 78.0043C62.0037 78.0462 62.4699 78.1118 63.0419 78.1854C63.1061 78.1934 63.1655 78.201 63.2324 78.2095C65.1392 78.4464 68.1756 78.7328 71.8477 78.5089C78.5281 78.102 87.321 75.9998 95.3055 68.8001L95.3274 68.772V68.7595C95.3541 68.1563 95.2734 67.0673 94.5114 66.2201C94.3784 66.0719 94.2232 65.9319 94.0465 65.802C93.9452 65.728 93.8404 65.657 93.7235 65.591C93.6062 65.5259 93.4991 65.4603 93.3956 65.3943C93.2542 65.3055 93.1208 65.2172 93.0025 65.1293L92.9852 65.1038C92.9312 65.0195 92.8736 64.9374 92.8187 64.8531C90.7473 61.7163 87.8943 59.8956 86.7567 59.0614C86.22 58.667 85.8782 58.4872 85.8782 58.4872C83.4147 56.9864 83.0533 56.4885 83.2835 52.4126C83.366 50.9448 83.5249 49.0157 83.6886 46.4005C83.7104 46.0601 83.7207 45.7371 83.7265 45.4195C83.7278 45.3436 83.7296 45.2696 83.7296 45.195C83.7319 44.8948 83.7287 44.6017 83.7171 44.3202L83.7145 44.2394L83.7078 44.1529C83.6953 43.9316 83.6797 43.7166 83.6614 43.5073C83.6529 43.4154 83.644 43.3231 83.6346 43.2325C83.6101 43.009 83.582 42.7917 83.5472 42.582C83.5298 42.475 83.5088 42.3719 83.4892 42.2675C83.4673 42.1502 83.4437 42.0355 83.4191 41.9231C83.395 41.8124 83.3705 41.7009 83.3433 41.5943L83.3424 41.5938L83.3433 41.5925V41.5938C83.3103 41.4622 83.2719 41.3378 83.2358 41.2133C83.2224 41.1678 83.2117 41.1205 83.1969 41.0763C83.1831 41.0344 83.1684 40.996 83.155 40.9541L83.1412 40.9126L83.0992 40.793L83.0979 40.785C83.0635 40.6886 83.0279 40.5949 82.9931 40.5035L82.9819 40.4731L82.9462 40.3866L82.9034 40.28L82.8936 40.2594V40.2568C82.8195 40.0841 82.7423 39.9164 82.6602 39.7593L82.5951 39.6433C82.5019 39.4894 82.4059 39.3449 82.3082 39.2052L82.269 39.1468L82.2203 39.0821C82.1503 38.9862 82.0798 38.892 82.0093 38.8042L81.913 38.6833C81.8184 38.5713 81.7242 38.4629 81.6292 38.3616V38.3607L81.627 38.3446L81.6243 38.325L81.619 38.2978L81.6118 38.259L81.606 38.2202L81.5935 38.1573L81.5877 38.1193L81.5703 38.0314L81.5636 38.0002C81.5302 37.8329 81.4829 37.6161 81.4195 37.3587L81.416 37.3399C81.3995 37.2779 81.383 37.2128 81.3656 37.1454L81.3584 37.12C81.3401 37.05 81.3209 36.979 81.3 36.9045L81.2973 36.8996C81.2487 36.727 81.1929 36.5405 81.1309 36.3477C81.1117 36.2853 81.0885 36.2197 81.0658 36.155C81.0211 36.0194 80.9747 35.8846 80.923 35.7437C80.8931 35.6629 80.861 35.5826 80.8289 35.5001C80.7789 35.3689 80.7258 35.2382 80.6682 35.1039C80.6317 35.0156 80.5906 34.9286 80.5522 34.8394C80.492 34.7064 80.4296 34.5748 80.3644 34.4423C80.3198 34.3517 80.2752 34.2621 80.2275 34.1719C80.1561 34.0363 80.0802 33.9038 80.0026 33.7704C79.9522 33.6852 79.9022 33.5991 79.8509 33.5134C79.7613 33.3702 79.6644 33.2297 79.5667 33.0896C79.5172 33.0205 79.4713 32.9482 79.4195 32.8786C79.3745 32.8184 79.3231 32.7626 79.2759 32.7037C79.1634 32.56 79.0523 32.4164 78.9292 32.2812L78.9145 32.266L78.8444 32.1996C78.6861 32.0296 78.5197 31.8636 78.3408 31.711L78.3086 31.6838C78.2301 31.6169 78.1476 31.5527 78.0655 31.4902L78.057 31.4831L78.0271 31.4617C77.9562 31.4081 77.8826 31.3568 77.8085 31.3069L77.7693 31.2792L77.7849 31.2926C77.7068 31.2346 77.5645 31.1596 77.378 31.0762C77.3129 31.0481 77.2415 31.0173 77.1647 30.9861C76.7802 30.8322 76.2604 30.6573 75.6448 30.4935C75.6064 30.4828 75.5658 30.4735 75.5283 30.4641C75.0166 30.3312 74.4478 30.2076 73.8446 30.1117C73.6416 30.0795 73.4359 30.0496 73.2272 30.0247C73.1286 30.0122 73.0273 30.0073 72.9282 29.9966C72.8881 29.9925 72.847 29.9894 72.8069 29.9854C72.3331 29.9399 71.8517 29.9087 71.3681 29.9131L71.3396 29.914C70.7167 29.9198 70.0926 29.9716 69.4984 30.0893C69.638 29.8574 70.0159 29.6013 70.3951 29.3871C70.8671 29.1199 71.3404 28.9214 71.3404 28.9214C71.0705 28.9414 70.7939 28.9798 70.5178 29.0244C70.429 29.0391 70.3393 29.0512 70.2496 29.0677C70.1912 29.0784 70.1336 29.09 70.0761 29.1007L70.0257 29.111C69.9766 29.1208 69.9298 29.131 69.8816 29.1413C68.4928 29.4371 67.1561 29.9372 66.4129 30.2406C66.3076 30.2834 66.2152 30.3222 66.134 30.3566L66.0872 30.3762C66.0131 30.3851 65.9373 30.3963 65.8632 30.4052L65.865 30.403C66.4129 29.3898 67.2217 28.8437 67.8374 28.5555C67.9449 28.5051 68.0475 28.4596 68.1408 28.4244C68.1756 28.411 68.2046 28.4021 68.2358 28.3905C68.3246 28.3592 68.4004 28.3347 68.466 28.3155C68.6114 28.2731 68.706 28.2544 68.706 28.2544C68.64 28.2562 68.5784 28.2647 68.5137 28.2682C68.4589 28.2718 68.4049 28.2767 68.3509 28.2812C68.2706 28.287 68.1894 28.2914 68.1104 28.2986C68.0631 28.3035 68.0136 28.3044 67.9663 28.3093C66.4307 28.4757 65.0651 28.9963 63.8949 29.6428C63.0878 30.0885 62.3709 30.5926 61.7677 31.0896C61.6067 31.123 61.4416 31.1574 61.2743 31.1931C59.5955 31.5513 57.6776 32.0131 55.661 32.6319C54.9164 32.8603 54.158 33.1106 53.3929 33.3845C52.7977 33.5982 52.1977 33.8311 51.5963 34.0756C51.1658 34.2505 50.7352 34.4343 50.3052 34.6261C47.209 36.0082 44.1583 37.8432 41.5948 40.305C41.5025 40.3937 41.4057 40.4772 41.3151 40.5673C41.092 40.789 40.877 41.0214 40.6624 41.2534C40.5745 41.348 40.4822 41.4368 40.3961 41.5332C40.2876 41.6527 40.1877 41.7817 40.082 41.9044C39.6042 42.4607 39.1446 43.0375 38.7195 43.651C38.4023 44.106 38.1034 44.5785 37.8192 45.0675L37.7844 45.125C37.1973 46.1444 36.6847 47.2357 36.2595 48.4054C36.0471 48.9908 35.8562 49.5953 35.6889 50.2194C35.6452 50.3849 35.6019 50.5509 35.5608 50.7191L35.5381 50.8065C35.3761 51.4842 35.2463 52.1887 35.1415 52.9136C35.1214 53.0564 35.0991 53.1974 35.0799 53.3424C35.0344 53.7042 34.9987 54.0731 34.9684 54.447C34.9403 54.7887 34.9193 55.1354 34.9037 55.4869L34.9001 55.5677C34.8934 55.7395 34.8836 55.9103 34.88 56.0848C34.8765 56.2837 34.8778 56.4867 34.8778 56.6893C34.8769 56.7366 34.8769 56.7834 34.8765 56.8311C34.8778 57.2269 34.8845 57.6257 34.9019 58.0335L34.9064 58.0986C34.9238 58.5033 34.9523 58.9164 34.9876 59.3331C35.0023 59.5062 35.017 59.6797 35.0344 59.8551C35.0389 59.8974 35.0415 59.9403 35.0455 59.9835C35.0554 60.0808 35.0674 60.1794 35.0781 60.2762C35.1294 60.7371 35.1914 61.2059 35.2637 61.6815C35.2829 61.8136 35.3007 61.9452 35.3222 62.0781C35.3891 62.4944 35.4613 62.9138 35.5434 63.3407C35.5434 63.3407 35.4689 62.7933 35.5153 61.988C35.5269 61.8029 35.5443 61.6048 35.5693 61.3938C35.6269 60.9365 35.7246 60.4324 35.891 59.9122C35.932 59.785 35.978 59.657 36.0275 59.528C36.048 59.4718 36.073 59.4165 36.0958 59.3603C36.1943 59.1221 36.305 58.8829 36.4384 58.6469C36.4687 58.8151 36.5008 58.9824 36.5347 59.1519L36.5455 59.2068L36.5446 59.2836C36.5437 59.388 36.5419 59.5004 36.541 59.6195C36.5392 59.8765 36.5392 60.1665 36.5419 60.4828C36.5455 60.8 36.5513 61.1404 36.5629 61.5013C36.6088 63.0159 36.7395 64.8442 37.0665 66.4016C37.0665 66.4016 37.1281 63.5696 37.6077 63.2488C37.6077 63.2488 38.446 68.494 39.2241 70.474C39.3249 70.7305 39.4253 70.9348 39.5221 71.0629L39.502 70.5427L39.3914 67.6276C39.3914 67.6276 39.3963 67.5188 39.407 67.3278C39.9901 68.5221 40.6539 69.7499 41.403 71.0111C41.6113 71.36 41.8232 71.7107 42.0441 72.0649C40.6026 73.3324 39.27 75.1254 38.3135 77.2699C38.1609 77.6126 38.0173 77.9641 37.8848 78.3237C37.8098 78.5285 37.7384 78.7377 37.6702 78.9483C37.6483 79.0143 37.6278 79.0808 37.6077 79.1477C37.5618 79.2958 37.5167 79.444 37.4743 79.5948C37.4524 79.6715 37.4319 79.7482 37.4114 79.8259C37.3713 79.9758 37.3329 80.127 37.2972 80.28C37.2798 80.3514 37.2615 80.4223 37.2468 80.4942C37.1973 80.7128 37.1509 80.9323 37.1098 81.1549L37.1067 81.1754C37.0665 81.3985 37.0309 81.6238 36.9992 81.8504C36.9889 81.9236 36.98 81.9972 36.9715 82.0699C36.9505 82.2319 36.9323 82.3943 36.9166 82.5571C36.9077 82.6401 36.901 82.7226 36.8939 82.806C36.8801 82.9702 36.8693 83.1366 36.8609 83.3021C36.8564 83.3771 36.852 83.452 36.8493 83.5274C36.8395 83.7666 36.8337 84.0079 36.8346 84.2511L36.8354 84.2823C36.8354 84.4692 36.8408 84.6557 36.8479 84.8435C36.8555 85.0331 36.8671 85.2228 36.8809 85.4137L36.8859 85.4904L36.8885 85.5382C36.9068 85.7697 36.9314 86.0017 36.9599 86.2355C36.9688 86.3095 36.9818 86.3836 36.9916 86.4581C37.0135 86.6178 37.0349 86.778 37.0625 86.9395C37.0768 87.0283 37.0942 87.1188 37.1098 87.2081C37.1375 87.3557 37.1647 87.5025 37.1964 87.6506C37.2164 87.7457 37.2383 87.8407 37.2588 87.9361C37.2923 88.0798 37.3262 88.2248 37.3637 88.3693C37.3878 88.4657 37.4132 88.563 37.4404 88.6602C37.4806 88.8052 37.5212 88.9507 37.5658 89.0965C37.5943 89.192 37.6233 89.2884 37.6537 89.3843C37.7023 89.5351 37.754 89.6868 37.8062 89.8376C37.8384 89.9281 37.8682 90.0187 37.9017 90.1093C37.9628 90.2766 38.0284 90.4439 38.0962 90.6116C38.1261 90.6866 38.1538 90.7611 38.1855 90.8365C38.3876 91.3223 38.6142 91.8099 38.8667 92.298C38.9051 92.3698 38.9461 92.4426 38.9836 92.5153C39.075 92.6862 39.1683 92.8575 39.2655 93.0283C39.3168 93.1176 39.3704 93.2068 39.4244 93.2969C39.5158 93.4508 39.6082 93.6061 39.7059 93.7604C39.7652 93.8559 39.8277 93.9518 39.8897 94.0478C39.9865 94.1959 40.0855 94.3449 40.1868 94.4926C40.2546 94.5916 40.3229 94.6893 40.392 94.7874C40.496 94.9351 40.6039 95.0828 40.715 95.2296C40.7869 95.3268 40.8587 95.4236 40.9328 95.5204C41.0501 95.6717 41.1697 95.8225 41.2932 95.9728C41.3664 96.0652 41.44 96.1575 41.5159 96.249C41.6533 96.4132 41.7965 96.5778 41.941 96.7411C42.0088 96.8187 42.0731 96.8959 42.1422 96.9731C42.359 97.2135 42.5812 97.454 42.8132 97.6931L42.8123 97.6918C42.811 97.6896 42.6771 97.4968 42.4951 97.1587L42.4884 97.1475C42.455 97.0846 42.4193 97.015 42.3827 96.9414L42.3711 96.9209C42.3327 96.8441 42.2939 96.7616 42.2538 96.6751L42.2457 96.6599C42.2038 96.568 42.1605 96.4698 42.1177 96.3668C41.7759 95.5454 41.444 94.4056 41.4869 93.1336C41.6189 93.3107 41.7536 93.4812 41.8875 93.6552C42.0432 93.9719 42.2413 94.365 42.4724 94.8066C42.55 94.9534 42.6307 95.106 42.7146 95.263C43.0541 95.889 43.4476 96.5845 43.8759 97.2796C44.3912 98.1138 44.9573 98.949 45.5422 99.67L45.5413 99.6691C45.5387 99.6642 44.8605 98.2486 44.6334 97.3197C44.5696 97.0587 44.5393 96.8343 44.5723 96.6933C44.6272 96.7491 44.6816 96.8058 44.7365 96.862C44.7909 96.9186 44.8458 96.974 44.9011 97.0306C45.0091 97.1743 45.1456 97.3554 45.2986 97.5566L45.3758 97.6579C45.4517 97.7578 45.5297 97.8613 45.6145 97.9711L45.619 97.9773C45.7162 98.104 45.8184 98.2356 45.9237 98.3721C46.878 99.5986 48.1477 101.166 49.0529 102.027C49.3549 102.315 49.6159 102.523 49.8117 102.614L48.5055 100.274C51.462 102.68 63.662 105.769 75.6809 102.32C77.1313 101.906 78.5808 101.392 80.0084 100.771C80.8712 100.398 81.7251 99.988 82.5706 99.5334L82.6933 99.4652C83.2848 99.1417 83.8715 98.7946 84.4537 98.4284L84.4666 98.4203C84.9039 98.1451 85.3371 97.8569 85.7658 97.5579C86.4836 97.052 87.1948 96.5193 87.8876 95.9403L87.8894 95.9394L87.8921 95.9371C87.9318 95.9019 87.9728 95.8675 88.0148 95.8323C88.7014 95.2322 89.3442 94.6152 89.9412 93.9871C90.7299 93.1573 91.4384 92.3096 92.0795 91.4593L92.1268 91.3982C92.2834 91.1885 92.4368 90.9797 92.5859 90.7731L92.6278 90.7124C92.6764 90.6415 92.7193 90.5741 92.7674 90.5041C92.9744 90.2061 93.1792 89.9076 93.3711 89.6114C93.417 89.5404 93.4643 89.4682 93.5103 89.3968C93.6097 89.2398 93.7057 89.0827 93.8016 88.9279C93.8739 88.8061 93.9479 88.6848 94.018 88.5643C94.096 88.4331 94.1745 88.3015 94.2504 88.1713C94.3847 87.9344 94.5158 87.6992 94.6417 87.4655C94.6912 87.3727 94.738 87.2826 94.7862 87.1911C94.8821 87.0091 94.9763 86.8293 95.065 86.6513C95.1065 86.5683 95.1485 86.4853 95.1886 86.4028L95.2252 86.3247C95.3367 86.1003 95.4429 85.8772 95.546 85.6582L95.5652 85.6113C95.9519 85.2504 96.2526 84.9073 96.494 84.579C96.5288 84.5326 96.5654 84.4853 96.5975 84.4389C97.1333 83.6657 97.3087 82.9818 97.3185 82.3679Z" fill="#856249"/>
<path d="M25.5191 73.6791C25.5084 73.6242 25.4991 73.5702 25.4897 73.5162L25.4991 73.5127C25.3585 72.7386 25.2519 71.9445 25.1756 71.133C25.1707 71.075 25.1627 71.0192 25.1564 70.9617C25.0226 71.0036 24.8718 71.1807 24.7201 71.4225C24.6635 71.5131 24.6077 71.6121 24.5519 71.7165C24.1459 72.4794 23.7801 73.5376 23.7801 73.5376C23.8087 73.1843 23.8475 72.8176 23.8907 72.4491C23.8957 72.4062 23.9019 72.3643 23.9073 72.321C23.9523 71.9458 24.0045 71.5675 24.0603 71.1914C24.0665 71.1459 24.0737 71.1008 24.0804 71.0562C24.1455 70.6324 24.2142 70.2113 24.2856 69.8048C24.2949 69.7517 24.3034 69.7004 24.3132 69.6482L24.3186 69.6215C24.3271 69.5746 24.3351 69.5269 24.3436 69.48C24.3556 69.41 24.3681 69.3399 24.381 69.2708C24.4395 68.9487 24.4997 68.6373 24.5582 68.3419C24.6113 68.0752 24.6626 67.8226 24.7121 67.5849L24.7277 67.5081C24.7348 67.4706 24.7429 67.4367 24.7504 67.401C24.758 67.3662 24.7652 67.3301 24.7723 67.294L24.775 67.2815C24.7879 67.2221 24.8013 67.161 24.8134 67.1048L24.8169 67.0892C24.8281 67.0334 24.8388 66.9861 24.8499 66.9339C24.8682 66.8523 24.8856 66.7684 24.9026 66.6921L24.9075 66.6707C24.9213 66.6087 24.9343 66.5458 24.9472 66.4891C24.9659 66.4075 24.9833 66.3326 24.9981 66.2616L24.9989 66.2594L24.9998 66.2576C25.0088 66.217 25.0172 66.1818 25.0257 66.1443L25.0275 66.1376C25.0355 66.1037 25.0427 66.068 25.0503 66.0381C25.0677 65.9631 25.0833 65.8953 25.0958 65.8431L25.1069 65.7967L25.1114 65.7798L25.1243 65.7249L25.1332 65.687L25.135 65.6816L25.1288 65.6865L25.0467 65.7611C24.9744 65.8253 24.9004 65.8882 24.8325 65.9596L24.758 66.0417C24.6782 66.1309 24.6005 66.2246 24.5283 66.3241L24.4899 66.3723C24.4002 66.4972 24.3168 66.6283 24.2374 66.7617V66.7622L24.2271 66.7796L24.2267 66.7805L24.1946 66.8398C24.1763 66.8724 24.1589 66.9058 24.1415 66.9388C24.0955 67.0223 24.0482 67.1035 24.0072 67.1878L24.005 67.1909L24.0036 67.1936L24.0014 67.2007L23.9853 67.2324L23.9706 67.2641C23.9064 67.3975 23.8479 67.53 23.793 67.6607C23.6378 68.0283 23.5178 68.3785 23.4277 68.6712C23.3964 68.7751 23.367 68.8737 23.3433 68.9607C23.2911 69.1494 23.2546 69.2971 23.2381 69.3694L23.2372 69.3756L23.2256 69.4243V69.4234V69.4243L23.23 69.3676C23.2363 69.2552 23.2492 69.1436 23.2581 69.0321C23.2755 68.7974 23.2902 68.5619 23.3161 68.329C23.3366 68.1327 23.367 67.9409 23.3946 67.7459C23.4036 67.6852 23.4129 67.6241 23.4219 67.5639C23.4339 67.4742 23.4464 67.3845 23.4611 67.2953C23.4741 67.2119 23.4923 67.1298 23.508 67.0482L23.5089 67.0419V67.0415L23.5263 66.95L23.5316 66.925C23.5499 66.8251 23.5691 66.7234 23.5883 66.6234C23.595 66.5846 23.6021 66.5458 23.6101 66.507L23.624 66.4378L23.6266 66.4249C23.6333 66.3923 23.6405 66.3589 23.6476 66.3268C23.6556 66.2857 23.6668 66.246 23.6753 66.2072C23.7083 66.0604 23.744 65.9163 23.7783 65.7713L23.7841 65.7472C23.8096 65.6393 23.8332 65.5308 23.8609 65.4247L23.8617 65.4198L23.8644 65.4126L23.8729 65.3814C23.9296 65.1628 23.9925 64.9491 24.0554 64.7336L24.0884 64.6149C24.1004 64.5752 24.1107 64.5333 24.1232 64.4931C24.2271 64.1438 24.3382 63.7989 24.4564 63.4617L24.4716 63.4193C24.5729 63.1329 24.6755 62.8509 24.783 62.573L24.7951 62.5413C24.8437 62.4191 24.8937 62.3017 24.9414 62.1808L24.9494 62.163C25.0226 61.9827 25.0949 61.8016 25.1698 61.6272L25.1703 61.6254V61.6245L25.1716 61.6223L25.1801 61.6004C25.2002 61.5567 25.2466 61.4505 25.3188 61.2943L25.3202 61.2917L25.33 61.2707V61.2703C25.3581 61.2087 25.3849 61.1489 25.4121 61.0864C25.4562 60.987 25.5008 60.8888 25.5446 60.7911L25.5843 60.7054L25.5852 60.7014L26.3467 59.3331C26.3784 59.2751 26.4096 59.218 26.44 59.1605L26.456 59.1328L26.4948 59.0623C26.5778 58.9106 26.6612 58.7581 26.7424 58.6099C26.8647 58.3896 26.982 58.179 27.0913 57.9813C27.3148 57.5789 27.5062 57.2376 27.6227 57.032C27.6869 56.9178 27.7293 56.8424 27.7418 56.8192L27.7471 56.8089H27.7462L27.7436 56.8067L27.7364 56.8013C27.707 56.7812 27.4759 56.622 27.0953 56.3913C26.6612 56.1299 26.0304 55.7752 25.2631 55.4192C25.0172 55.3045 24.7585 55.1912 24.4872 55.0801C24.1624 54.9467 23.8216 54.8174 23.4669 54.6982C23.3755 54.6679 23.2795 54.6434 23.1872 54.6144C22.8901 54.5207 22.5854 54.4368 22.2735 54.3623L22.2557 54.3583C22.0415 54.307 21.8287 54.2534 21.6092 54.2128C21.437 54.1803 21.2643 54.1481 21.089 54.1241C21.0056 54.1125 20.919 54.1058 20.8347 54.0982C20.7508 54.0897 20.6679 54.0812 20.5844 54.0728C20.3484 54.0518 20.1115 54.0411 19.8746 54.0353C19.7595 54.0326 19.6444 54.029 19.5293 54.0317C19.0136 54.0433 18.5072 54.0888 18.0098 54.1597L17.9192 54.1736C17.0225 54.3079 16.1574 54.5336 15.3339 54.8446C15.0541 54.9499 14.7784 55.0636 14.5076 55.1876C14.4309 55.2233 14.3546 55.2608 14.2783 55.2983C14.1855 55.3433 14.0914 55.3875 13.9999 55.4344C13.1826 55.8551 12.4193 56.3641 11.7184 56.9441L11.6934 56.965C11.0884 57.4665 10.533 58.0224 10.0316 58.6265C9.8879 58.7987 9.74915 58.9749 9.61531 59.1547C9.45648 59.367 9.30346 59.5839 9.15757 59.806C8.8832 60.2259 8.63292 60.6626 8.40806 61.1154C8.3291 61.2743 8.25147 61.4344 8.1792 61.5968C8.16581 61.6272 8.15377 61.6593 8.14083 61.6901C7.67819 62.7487 7.35385 63.8819 7.19368 65.0646C7.16201 65.2966 7.13613 65.5304 7.11695 65.7669L7.11026 65.8552C7.09643 66.0421 7.08706 66.2299 7.08126 66.4187C7.07412 66.6498 7.07278 66.8826 7.07858 67.116C7.07947 67.1539 7.08304 67.1896 7.08393 67.2266C7.08973 67.4082 7.09687 67.5884 7.11026 67.7682L7.12052 67.8628C7.12409 67.9047 7.1281 67.9462 7.13167 67.9873C7.14372 68.1296 7.1571 68.2706 7.17361 68.4093L7.17941 68.4414V68.4504L7.1803 68.4517C7.19011 68.5217 7.20216 68.5922 7.21197 68.6627C7.23027 68.789 7.24767 68.9161 7.26863 69.041C7.28514 69.1321 7.30522 69.2213 7.32262 69.3114C7.34626 69.4278 7.36678 69.5461 7.394 69.6616C7.41541 69.7571 7.44084 69.8503 7.46449 69.9431L7.4801 70.0087L7.50553 70.1064L7.52472 70.1809L7.54836 70.271C7.57513 70.3678 7.60681 70.4647 7.63536 70.561C7.66659 70.6627 7.69692 70.7662 7.73038 70.8662C7.76251 70.9652 7.79909 71.0625 7.83478 71.1606L7.86378 71.2391C7.88787 71.3092 7.91241 71.3801 7.94051 71.4502C7.97888 71.5492 8.02127 71.6478 8.06231 71.7473C8.10023 71.8374 8.13726 71.9284 8.17652 72.0181C8.19927 72.0694 8.22336 72.1194 8.24701 72.1684C8.27155 72.218 8.29341 72.2684 8.31661 72.3179C8.35676 72.4036 8.39691 72.4879 8.43974 72.5726C8.49105 72.6744 8.54503 72.7747 8.59901 72.8747C8.64184 72.9536 8.68288 73.0326 8.72616 73.1107C8.78371 73.2133 8.84572 73.3146 8.90684 73.4167C8.95012 73.4877 8.99206 73.5599 9.03667 73.6322C9.1018 73.7357 9.16962 73.8361 9.23832 73.9374C9.28249 74.0047 9.32666 74.0712 9.37172 74.1363C9.44399 74.2394 9.51894 74.3411 9.59434 74.4433C9.63851 74.5035 9.68312 74.5637 9.72818 74.6226C9.80759 74.7275 9.89057 74.8292 9.974 74.9305C10.0168 74.9845 10.0605 75.0389 10.1065 75.0915C10.1935 75.195 10.2836 75.2963 10.3751 75.3976C10.4175 75.4453 10.4603 75.4926 10.5049 75.5403C10.5995 75.6438 10.6972 75.7451 10.7967 75.8433C10.8395 75.8852 10.8801 75.928 10.9229 75.97C11.026 76.0708 11.1331 76.1707 11.2388 76.2689C11.2794 76.305 11.3195 76.3416 11.3597 76.3786C11.4712 76.4777 11.585 76.5754 11.701 76.6713C11.7394 76.703 11.7759 76.7351 11.8143 76.7659C11.9348 76.8645 12.0575 76.9586 12.181 77.0527C12.2163 77.0782 12.2529 77.1063 12.2872 77.1326C12.4166 77.2267 12.5464 77.3186 12.6785 77.4088L12.7766 77.4757C12.9131 77.5671 13.0519 77.6568 13.192 77.7425L13.2812 77.7964C13.4262 77.8852 13.5743 77.9678 13.7233 78.0507L13.8001 78.0936C13.9544 78.177 14.1106 78.256 14.2672 78.3336L14.3345 78.3653C14.4965 78.4438 14.6593 78.5178 14.8248 78.5897L14.8833 78.6151C15.0528 78.686 15.2237 78.7534 15.3954 78.819L15.4436 78.8364C15.6212 78.9011 15.7983 78.9631 15.9794 79.0211L16.016 79.0331C16.1039 79.0603 16.194 79.084 16.2828 79.1099C16.3796 79.138 16.476 79.1683 16.5737 79.1946L16.6009 79.2022C16.7923 79.2522 16.985 79.2977 17.1795 79.3392L17.196 79.3441C17.1969 79.3445 17.1987 79.3445 17.1992 79.345C17.3955 79.3865 17.594 79.4239 17.7939 79.4552L17.8032 79.4583C18.4167 79.5569 19.0448 79.6122 19.6841 79.6198C19.8363 79.6225 19.9884 79.6243 20.141 79.6225C20.3458 79.6176 20.5559 79.6042 20.7669 79.5868C21.0547 79.5636 21.346 79.5292 21.6404 79.4851C21.8996 79.4467 22.1575 79.4012 22.4154 79.3472C22.8169 79.2647 23.2135 79.1665 23.5959 79.0554C24.7429 78.7222 25.756 78.2778 26.3619 77.8259C26.3619 77.8259 25.9635 76.061 25.6262 74.268C25.5896 74.0708 25.5535 73.8736 25.5191 73.6791Z" fill="#856249"/>
<path d="M77.7674 31.2783L77.7692 31.2792L77.7643 31.2756L77.7674 31.2783Z" fill="#856249"/>
<path d="M54.1539 7.38541L54.008 5.59775L54.9029 3.6169L55.2567 3.53749C54.6705 3.26535 53.9741 3.07128 53.1679 2.9709C51.5533 2.76746 49.5034 2.95439 47.1678 3.55802C44.8323 4.15762 42.2135 5.16589 39.4363 6.54891C33.8815 9.31316 27.6976 13.5733 21.747 19.0019C19.6707 20.8953 17.7345 22.8297 15.9544 24.77C14.2252 26.6522 12.6441 28.5407 11.2254 30.4029C8.34425 34.1843 6.13588 37.8623 4.72564 41.1431C3.78385 43.3292 3.2012 45.3377 2.98839 47.0567C2.83135 48.3063 2.8724 49.3993 3.08163 50.3023C3.14945 50.5945 3.23912 50.86 3.34039 51.1138C3.55097 51.6474 3.82757 52.1074 4.18493 52.5013L7.78524 56.2729L8.17115 56.6767L8.19658 56.6495C8.30633 56.5223 8.41875 56.3956 8.53296 56.2716L8.5633 56.2386C8.60479 56.194 8.64806 56.152 8.68956 56.1092C8.79752 55.9963 8.90682 55.8834 9.01836 55.7733C9.08751 55.705 9.15755 55.6394 9.22804 55.5729C9.29675 55.5082 9.36322 55.4413 9.43282 55.3775C9.46449 55.349 9.49661 55.3227 9.52874 55.2941C9.6019 55.2276 9.67775 55.1625 9.75359 55.0969C9.85888 55.0059 9.96461 54.9158 10.0735 54.827C10.1368 54.7752 10.2006 54.7239 10.2649 54.6726L10.293 54.6508C10.4072 54.5611 10.5232 54.4732 10.6387 54.3867C10.7119 54.3318 10.7855 54.2783 10.8596 54.2247C10.9796 54.1395 11.1023 54.0547 11.2254 53.9718C11.2994 53.9222 11.3726 53.8727 11.4476 53.8241C11.5738 53.742 11.7028 53.6621 11.8317 53.5836C11.9071 53.5381 11.9798 53.4926 12.0548 53.4493C12.1899 53.3699 12.3269 53.295 12.4634 53.22C12.5366 53.1808 12.6084 53.1397 12.6816 53.1013L12.7637 53.0581L12.7686 53.0433C13.6305 50.657 14.9216 48.0663 16.5955 45.3671C18.6518 42.0519 21.279 38.5747 24.3984 35.1118C26.3601 32.9334 28.514 30.7607 30.8397 28.6389C33.8485 25.8965 36.9156 23.4494 39.9409 21.3294C41.9788 19.9008 43.9954 18.6289 45.9637 17.5131C46.1502 17.4074 46.3376 17.2976 46.5232 17.1955C47.0478 16.905 47.5671 16.6293 48.0838 16.3634C49.208 15.7821 50.3126 15.2548 51.3896 14.789L50.8618 14.1551L50.7744 14.0507L46.4023 8.79297L46.4362 5.58972L46.3951 5.54332L49.0224 4.7599L54.1539 7.38541Z" fill="#3478AD"/>
<path d="M97.3184 82.368L97.3197 82.3675C97.3197 82.3675 97.4107 81.6881 97.0516 81.0804L97.0436 81.0639C97.0226 81.0274 97.0003 80.9948 96.9776 80.9622L96.9539 80.927C96.9146 80.8739 96.8669 80.823 96.8178 80.7717C96.7299 80.6794 96.6273 80.5928 96.5051 80.5156C96.4417 80.4737 96.3726 80.4353 96.2985 80.3988C96.0946 80.3015 95.8506 80.2274 95.5606 80.1851C95.3487 80.1543 95.1065 80.1453 94.8428 80.1534C94.7362 80.1569 94.6309 80.1592 94.5158 80.1699L94.4636 80.173C94.4636 80.173 94.4716 80.2011 94.4828 80.243C94.4948 80.2872 94.5113 80.351 94.5341 80.4353C94.5421 80.4684 94.5506 80.5027 94.5604 80.5406C94.5979 80.691 94.6429 80.8819 94.6889 81.0978C94.6884 81.0996 94.6755 81.1416 94.6416 81.2205L94.6237 81.2625C94.4917 81.5694 94.1326 82.2783 93.3326 83.2005C93.1966 83.3571 93.0458 83.5213 92.8838 83.6899C90.6522 85.9955 85.8228 89.2786 75.6621 91.1154C72.2144 91.6017 69.0357 91.6284 66.3205 91.2907C62.3057 90.7915 59.2974 89.5088 57.8979 87.7841C57.7765 87.636 57.6654 87.4834 57.5597 87.3295C57.4816 87.2157 57.4062 87.1006 57.3366 86.9842C57.3117 86.9413 57.2889 86.8976 57.2644 86.8548C56.663 85.7916 56.4011 84.6326 56.4158 83.5101C56.435 82.1472 56.8602 80.8431 57.5798 79.8406C58.1638 79.0278 58.9401 78.4134 59.8479 78.1297C60.2932 77.991 60.7692 77.9285 61.2693 77.9624C61.3702 77.9695 61.5036 77.9838 61.67 78.0043C62.0037 78.0463 62.4699 78.1119 63.0418 78.1855C63.1061 78.1935 63.1654 78.2011 63.2323 78.2096C65.1391 78.4465 68.1755 78.7329 71.8476 78.5089C78.5281 78.102 87.321 75.9999 95.3054 68.8001L95.3273 68.772V68.7595C95.3541 68.1564 95.2733 67.0673 94.5113 66.2201C94.3784 66.072 94.2231 65.9319 94.0464 65.8021C93.9452 65.728 93.8403 65.6571 93.7234 65.5911C93.6061 65.5259 93.499 65.4604 93.3955 65.3943C93.2541 65.3055 93.1207 65.2172 93.0025 65.1293L92.9851 65.1039C92.9311 65.0196 92.8736 64.9375 92.8187 64.8532C90.7473 61.7164 87.8942 59.8957 86.7566 59.0614C86.2199 58.6671 85.8782 58.4873 85.8782 58.4873C83.4146 56.9865 83.0532 56.4886 83.2834 52.4127C83.366 50.9449 83.5248 49.0158 83.6885 46.4006C83.7104 46.0602 83.7206 45.7372 83.7264 45.4195C83.7278 45.3437 83.7296 45.2696 83.7296 45.1951C83.7318 44.8949 83.7287 44.6017 83.7171 44.3202L83.7144 44.2395L83.7077 44.1529C83.6952 43.9316 83.6796 43.7166 83.6613 43.5074C83.6528 43.4155 83.6439 43.3231 83.6345 43.2326C83.61 43.009 83.5819 42.7918 83.5471 42.5821C83.5297 42.475 83.5087 42.372 83.4891 42.2676C83.4672 42.1502 83.4436 42.0356 83.4191 41.9231C83.395 41.8125 83.3704 41.701 83.3432 41.5943L83.3423 41.5939L83.3432 41.5926V41.5939C83.3102 41.4623 83.2718 41.3378 83.2357 41.2133C83.2223 41.1678 83.2116 41.1205 83.1969 41.0764C83.183 41.0344 83.1683 40.9961 83.1549 40.9541L83.1411 40.9126L83.0992 40.7931L83.0978 40.7851C83.0635 40.6887 83.0278 40.595 82.993 40.5035L82.9818 40.4732L82.9462 40.3867L82.9033 40.28L82.8935 40.2595V40.2568C82.8195 40.0842 82.7423 39.9164 82.6602 39.7594L82.595 39.6434C82.5018 39.4895 82.4059 39.3449 82.3082 39.2053L82.2689 39.1468L82.2203 39.0822C82.1502 38.9862 82.0798 38.8921 82.0093 38.8042L81.9129 38.6833C81.8183 38.5713 81.7242 38.4629 81.6292 38.3616L81.6287 38.3608C81.5123 38.2381 81.3958 38.1221 81.2772 38.015C81.1415 37.9307 81.0081 37.8548 80.8739 37.7879C80.8301 37.7652 80.786 37.7482 80.7414 37.7286C80.6535 37.6875 80.5638 37.6474 80.475 37.6144C80.4233 37.5947 80.3728 37.5791 80.3215 37.5617C80.2421 37.5363 80.1609 37.5104 80.0811 37.4895C80.0289 37.4765 79.9749 37.4654 79.9222 37.4547C79.8442 37.4381 79.7674 37.4243 79.6898 37.4132C79.6367 37.406 79.5845 37.3998 79.531 37.3953C79.4543 37.3877 79.3771 37.3842 79.3003 37.381C79.2481 37.3797 79.1964 37.3784 79.146 37.3797C79.0666 37.381 78.9885 37.3851 78.91 37.3913C78.8618 37.3949 78.8132 37.3989 78.7654 37.4042L78.6597 37.4199C78.6119 37.4283 78.5638 37.4337 78.5142 37.4431C78.4723 37.4502 78.4299 37.4573 78.388 37.4658C78.2903 37.4863 78.1935 37.5113 78.0971 37.539L78.0123 37.5608C77.758 37.6367 77.5042 37.7339 77.2535 37.8481L77.1696 37.8879C77.0719 37.9329 76.9737 37.9802 76.876 38.0302L76.7636 38.0908C76.6748 38.1368 76.586 38.1859 76.4982 38.2354L76.3777 38.3059C76.2907 38.3563 76.2033 38.408 76.1163 38.462L75.9976 38.5352C75.907 38.5919 75.8156 38.6503 75.7241 38.7096L75.6233 38.7757C75.5202 38.843 75.4167 38.9117 75.3137 38.9818L75.2521 39.0233C75.1361 39.1022 75.0183 39.1834 74.9005 39.2646L74.8965 39.2682L74.8782 39.2793H74.8796C74.6601 39.4301 74.441 39.5845 74.2193 39.7384C74.0337 39.8678 73.8445 39.9972 73.6545 40.1257L73.563 40.1886C73.3716 40.3171 73.178 40.4424 72.984 40.5673L72.8862 40.6285C72.6908 40.7498 72.495 40.868 72.2973 40.9805L72.1934 41.038C71.9949 41.15 71.7928 41.2544 71.5889 41.3543L71.4872 41.4021C71.2811 41.5002 71.0705 41.5917 70.8577 41.672L70.7698 41.7054C70.5503 41.7857 70.3272 41.8593 70.1006 41.9191L70.0412 41.933C69.8017 41.9945 69.5621 42.0441 69.3158 42.0775C68.9023 42.1333 68.4891 42.1516 68.0738 42.1534C67.3974 42.1565 66.7189 42.1016 66.0372 42.0003C65.8101 41.966 65.5808 41.9258 65.3524 41.8839C65.2712 41.8687 65.1904 41.8562 65.1101 41.8406C64.5159 41.7251 63.918 41.5872 63.3162 41.4422C63.0632 41.382 62.8107 41.3209 62.5569 41.2593C62.1491 41.1598 61.7373 41.0639 61.3251 40.9698C61.2435 40.951 61.1645 40.9305 61.082 40.9126L61.086 40.9122C61.028 40.8997 60.9695 40.8877 60.9111 40.8756C60.8196 40.8555 60.7282 40.8359 60.6376 40.8154C60.5502 40.798 60.4623 40.7806 60.3753 40.7632L60.3298 40.7538L60.2994 40.748C60.2191 40.732 60.1393 40.7159 60.0585 40.7003C59.8716 40.665 59.6833 40.6316 59.495 40.6004C59.4393 40.5905 59.3831 40.5834 59.3278 40.5749C59.1877 40.5531 59.048 40.5317 58.9088 40.5129C58.8383 40.5027 58.7665 40.496 58.6969 40.4875L58.6813 40.4857C58.5595 40.4701 58.4373 40.4558 58.3155 40.4438C58.2343 40.4357 58.1522 40.429 58.0723 40.4215C58.0357 40.4188 57.9992 40.4165 57.9617 40.4134C57.8787 40.4072 57.7944 40.4005 57.7105 40.3956C57.6306 40.3902 57.5503 40.3858 57.4691 40.3822C57.3402 40.3768 57.214 40.3737 57.0868 40.3715C57.0484 40.371 57.0101 40.3706 56.9717 40.3697C56.9369 40.3693 56.9003 40.3679 56.8646 40.3679C56.7067 40.3684 56.5465 40.3715 56.3859 40.3786C56.3444 40.38 56.3007 40.3795 56.2583 40.3826C56.0549 40.3911 55.8506 40.4072 55.6453 40.4286C55.5923 40.4339 55.5392 40.442 55.4852 40.4473C55.3527 40.4629 55.2197 40.4808 55.0863 40.5013L55.027 40.5098C54.9543 40.5205 54.8802 40.5343 54.8079 40.5473C54.6714 40.5722 54.5363 40.5986 54.3993 40.628C54.3203 40.6459 54.2418 40.6628 54.1633 40.6829C54.0286 40.715 53.8925 40.7512 53.7564 40.7895C53.6792 40.8109 53.602 40.8323 53.524 40.8564C53.3772 40.9011 53.2309 40.951 53.0836 41.0032C53.0167 41.0264 52.9502 41.0474 52.8833 41.0737C52.6678 41.1527 52.4546 41.2392 52.2378 41.3356C50.5447 42.3104 49.0903 43.6408 47.9339 45.1929C47.5489 45.7095 47.1964 46.2516 46.8797 46.8128C46.5442 47.407 46.2533 48.024 46.0003 48.6562C45.9263 48.8409 45.8558 49.0256 45.7889 49.213C45.6782 49.5284 45.5725 49.8465 45.4828 50.1682C45.4735 50.2025 45.4659 50.2378 45.4565 50.2726C45.3575 50.6353 45.2718 51.0011 45.2013 51.3705C45.1264 51.756 45.0693 52.1437 45.0264 52.5331C45.0032 52.7437 44.9818 52.9538 44.968 53.1649C44.9314 53.7319 44.9354 54.3016 44.9698 54.8696C44.972 54.9209 44.9765 54.9731 44.98 55.0239C44.9899 55.1694 44.9948 55.3135 45.0104 55.4589C45.0523 55.8631 45.1099 56.2673 45.1911 56.6684C45.2196 56.8165 45.2598 56.9561 45.2955 57.0989C45.3289 57.2354 45.3593 57.3764 45.3958 57.5098V57.5089C45.6782 58.5332 46.0869 59.4558 46.571 60.2941C48.4157 63.4813 51.449 65.3872 53.6467 66.4102C54.5015 66.7872 55.3937 67.124 56.3208 67.4198C56.3208 67.4198 56.2771 67.447 56.2093 67.493C56.0455 67.534 55.8537 67.5849 55.6413 67.6451C55.3197 67.7356 54.9485 67.8485 54.5389 67.9864C54.079 68.1412 53.5717 68.3277 53.0368 68.5489C51.6101 69.1401 49.991 69.9806 48.5563 71.1414C48.3765 71.2864 48.2002 71.4363 48.0271 71.5911C47.7327 71.8562 47.4521 72.1386 47.1822 72.4343C47.1514 72.4678 47.1184 72.4999 47.0889 72.5338C47.0479 72.5793 47.0077 72.6266 46.9676 72.6726C46.8658 72.7917 46.765 72.9135 46.6669 73.0375C46.6276 73.0875 46.5888 73.137 46.5495 73.187C46.4206 73.3574 46.2948 73.53 46.1757 73.7094C46.0588 73.8852 45.9464 74.0668 45.8402 74.251C44.9899 75.7353 44.5076 77.5123 44.6557 79.6314L44.6602 79.6095L44.6628 79.5939C44.6664 79.5747 44.6718 79.548 44.6784 79.515L44.6829 79.4976C44.6892 79.4654 44.6985 79.4275 44.7083 79.3856L44.7141 79.3593C44.7257 79.3111 44.7396 79.2558 44.7552 79.1955L44.7659 79.1563C44.7833 79.092 44.8025 79.0224 44.8239 78.947L44.8248 78.9466C44.8457 78.8725 44.8721 78.7927 44.8979 78.7101L44.9149 78.6597C44.9426 78.5758 44.9729 78.488 45.0064 78.3974L45.0238 78.3541C45.0545 78.2685 45.0889 78.1806 45.1264 78.09L45.1438 78.0481C45.1839 77.9504 45.2285 77.8495 45.2745 77.7469L45.3044 77.6831C45.3539 77.5783 45.4043 77.4721 45.461 77.3646V77.3641C45.4632 77.3597 45.4659 77.3557 45.4681 77.3516C45.552 77.191 45.6466 77.0273 45.7474 76.8627C45.7853 76.8002 45.8219 76.7382 45.8638 76.6758L45.896 76.6236L45.8968 76.6222C45.9829 76.4933 46.0735 76.3644 46.1712 76.2368C46.2506 76.1324 46.3349 76.0289 46.4219 75.9258C46.4492 75.8937 46.4786 75.8616 46.5076 75.8294C46.5772 75.7514 46.6495 75.6733 46.7244 75.5966C46.7552 75.5658 46.7855 75.5341 46.8163 75.5038C46.9189 75.4034 47.0242 75.3052 47.1358 75.2102L47.1451 75.2013V75.2017V75.2013C47.1451 75.2013 45.2151 79.568 46.0543 83.0305C46.0543 83.0305 46.0534 83.0198 46.0534 83.0015V82.9801C46.0525 82.9609 46.0525 82.9386 46.0525 82.9092C46.0525 82.9034 46.0525 82.8967 46.0521 82.8904C46.0525 82.8547 46.0525 82.8137 46.0543 82.7646C46.0543 82.7584 46.0543 82.7526 46.0552 82.7454C46.0552 82.6941 46.0588 82.637 46.0615 82.5732C46.0615 82.5674 46.0624 82.5607 46.0624 82.5549C46.0659 82.4893 46.0699 82.4175 46.0757 82.3412C46.0757 82.3341 46.0762 82.3283 46.0771 82.322C46.0833 82.244 46.09 82.1619 46.0998 82.0749C46.1007 82.0682 46.1016 82.0611 46.1025 82.0535C46.111 81.9665 46.1235 81.8764 46.1364 81.7813C46.1373 81.7729 46.1391 81.7644 46.14 81.7559C46.1547 81.6555 46.1712 81.5511 46.1913 81.4436L46.1958 81.4182L46.206 81.3642V81.362C46.2297 81.2411 46.2578 81.1175 46.2899 80.9921C46.2921 80.9841 46.2939 80.9756 46.2957 80.9671C46.3287 80.8449 46.3639 80.7213 46.4032 80.5968C46.4157 80.5585 46.4273 80.521 46.4398 80.4826L46.4666 80.4032V80.4019C46.5031 80.2997 46.5433 80.1975 46.5866 80.0958L46.5933 80.0793L46.5937 80.0784C46.6539 79.9361 46.7244 79.7983 46.7994 79.6613C46.8186 79.6252 46.84 79.589 46.8609 79.5538C46.9408 79.4186 47.0247 79.2861 47.1201 79.1607L47.1242 79.1545V79.1554V79.1545H47.1246C47.1246 79.1545 47.014 80.2297 47.0425 81.5092C47.0479 81.7104 47.0572 81.9174 47.0702 82.1257C47.0782 82.2645 47.0871 82.4041 47.1001 82.5433C47.1853 81.1683 47.4365 79.8768 47.8023 78.6722C47.4365 79.8777 47.1853 81.1688 47.1005 82.5447V82.5451C47.0452 83.4227 47.0572 84.3332 47.1478 85.2768C47.3013 86.8499 47.6751 88.5144 48.3336 90.2664C48.3336 90.2664 47.73 88.2516 48.5995 86.2364C48.6781 86.4198 48.7619 86.6045 48.8498 86.7905C48.9212 87.3884 49.0416 88.2374 49.2174 89.172C49.3856 90.7295 50.1307 95.4018 53.3049 98.6881C53.3049 98.6881 52.1053 97.1315 52.2917 95.1047C52.4171 95.3711 52.5411 95.6111 52.6594 95.8181C53.2023 96.8344 54.2824 98.7273 55.4598 100.039C55.4598 100.039 54.5046 98.1893 54.7272 97.7904C54.7272 97.7904 57.8421 101.664 58.833 102.042L57.5303 99.8815L57.5008 99.8181C62.0273 103.1 68.2375 104.319 75.9186 102.18C77.2387 101.811 78.6021 101.345 80.0084 100.771C80.8712 100.398 81.7251 99.9881 82.5705 99.5335L82.6932 99.4652C83.2848 99.1418 83.8714 98.7947 84.4536 98.4284L84.4666 98.4204C84.9038 98.1451 85.337 97.8569 85.7657 97.558C86.4836 97.0521 87.1947 96.5194 87.8875 95.9403L87.8893 95.9394L87.892 95.9372C87.9317 95.902 87.9728 95.8676 88.0147 95.8324C88.7013 95.2323 89.3442 94.6153 89.9411 93.9871C90.7299 93.1573 91.4383 92.3097 92.0794 91.4593L92.1267 91.3982C92.2833 91.1885 92.4368 90.9797 92.5858 90.7732L92.6277 90.7125C92.6764 90.6416 92.7192 90.5742 92.7674 90.5042C92.9744 90.2061 93.1792 89.9077 93.371 89.6114C93.4169 89.5405 93.4642 89.4682 93.5102 89.3969C93.6097 89.2398 93.7056 89.0828 93.8015 88.928C93.8738 88.8062 93.9478 88.6848 94.0179 88.5644C94.096 88.4332 94.1745 88.3016 94.2503 88.1713C94.3846 87.9344 94.5158 87.6993 94.6416 87.4655C94.6911 87.3727 94.738 87.2826 94.7861 87.1912C94.8821 87.0091 94.9762 86.8293 95.065 86.6513C95.1065 86.5684 95.1484 86.4854 95.1885 86.4028L95.2251 86.3248C95.3367 86.1004 95.4428 85.8773 95.5459 85.6582L95.5651 85.6114C95.9519 85.2505 96.2526 84.9074 96.4939 84.579C96.5287 84.5326 96.5653 84.4853 96.5974 84.439C97.1333 83.6658 97.3086 82.9819 97.3184 82.368Z" fill="#FCE9C9"/>
<path d="M25.1563 70.9621C25.0225 71.0041 24.8717 71.1812 24.72 71.423C24.6634 71.5136 24.6076 71.6126 24.5518 71.717C24.1458 72.4799 23.78 73.5381 23.78 73.5381C23.8086 73.1848 23.8474 72.8181 23.8907 72.4496C23.8956 72.4067 23.9018 72.3648 23.9072 72.3215C23.9522 71.9463 24.0044 71.568 24.0602 71.1919C24.0664 71.1464 24.0736 71.1013 24.0803 71.0567C24.1454 70.6329 24.2141 70.2118 24.2855 69.8053C24.2948 69.7522 24.3033 69.7009 24.3131 69.6487L24.3185 69.622C24.327 69.5751 24.335 69.5274 24.3435 69.4805C24.3555 69.4105 24.368 69.3404 24.381 69.2713C24.4394 68.9492 24.4996 68.6378 24.5581 68.3424C24.6112 68.0757 24.6625 67.8231 24.712 67.5853L24.7276 67.5086C24.7347 67.4711 24.7428 67.4372 24.7504 67.4015C24.7579 67.3667 24.7651 67.3306 24.7722 67.2945L24.7749 67.282C24.7878 67.2226 24.8012 67.1615 24.8133 67.1053L24.8168 67.0897C24.828 67.0339 24.8387 66.9866 24.8498 66.9344C24.8681 66.8528 24.8855 66.7689 24.9025 66.6926L24.9074 66.6712C24.9212 66.6092 24.9342 66.5463 24.9471 66.4896C24.9658 66.408 24.9832 66.333 24.998 66.2621L24.9988 66.2599L24.9997 66.2581C25.0087 66.2175 25.0171 66.1823 25.0256 66.1448L25.0274 66.1381C25.0354 66.1042 25.0426 66.0685 25.0502 66.0386C25.0676 65.9636 25.0832 65.8958 25.0957 65.8436L25.1068 65.7972L25.1113 65.7803L25.1242 65.7254L25.1331 65.6875L25.1349 65.6821L25.1287 65.687L25.0466 65.7615C24.9743 65.8258 24.9003 65.8887 24.8324 65.9601L24.7579 66.0422C24.6781 66.1314 24.6005 66.2251 24.5282 66.3246L24.4898 66.3728C24.4001 66.4977 24.3167 66.6288 24.2373 66.7622V66.7627L24.227 66.7801L24.2266 66.781L24.1945 66.8403C24.1762 66.8729 24.1588 66.9063 24.1414 66.9393C24.0954 67.0228 24.0481 67.104 24.0071 67.1883L24.0049 67.1914L24.0035 67.1941L24.0013 67.2012L23.9852 67.2329L23.9705 67.2646C23.9063 67.398 23.8478 67.5305 23.7929 67.6612C23.6377 68.0288 23.5177 68.379 23.4276 68.6717C23.3963 68.7756 23.3669 68.8742 23.3432 68.9612C23.291 69.1499 23.2545 69.2976 23.238 69.3699L23.2371 69.3761L23.2255 69.4248V69.4239V69.4248L23.2299 69.3681C23.2362 69.2557 23.2491 69.1441 23.258 69.0326C23.2754 68.7979 23.2902 68.5624 23.316 68.3295C23.3365 68.1332 23.3669 67.9414 23.3945 67.7464C23.4035 67.6857 23.4128 67.6246 23.4218 67.5644C23.4338 67.4747 23.4463 67.385 23.461 67.2958C23.474 67.2124 23.4923 67.1303 23.5079 67.0486L23.5088 67.0424V67.042L23.5262 66.9505L23.5315 66.9255C23.5498 66.8256 23.569 66.7239 23.5882 66.6239C23.5949 66.5851 23.602 66.5463 23.61 66.5075L23.6239 66.4383L23.6265 66.4254C23.6332 66.3928 23.6404 66.3594 23.6475 66.3272C23.6555 66.2862 23.6667 66.2465 23.6752 66.2077C23.7082 66.0609 23.7439 65.9168 23.7782 65.7718L23.784 65.7477C23.8095 65.6398 23.8331 65.5313 23.8608 65.4252L23.8617 65.4203L23.8643 65.4131L23.8728 65.3819C23.9295 65.1633 23.9924 64.9496 24.0553 64.7341L24.0883 64.6154C24.1003 64.5757 24.1106 64.5338 24.1231 64.4936C24.227 64.1443 24.3381 63.7994 24.4564 63.4622L24.4715 63.4198C24.5728 63.1334 24.6754 62.8514 24.7829 62.5735L24.795 62.5418C24.8436 62.4195 24.8936 62.3022 24.9413 62.1813L24.9493 62.1635C25.0225 61.9832 25.0948 61.8021 25.1697 61.6277L25.1702 61.6259V61.625L25.1715 61.6227L25.18 61.6009C25.2001 61.5572 25.2465 61.451 25.3187 61.2948L25.3201 61.2922L25.3299 61.2712V61.2707C25.358 61.2092 25.3848 61.1494 25.412 61.0869C25.4561 60.9875 25.5008 60.8893 25.5445 60.7916L25.5842 60.7059C25.5217 60.672 25.4561 60.6417 25.3919 60.6096L25.3553 60.5913L25.2871 60.5569C24.8699 60.3571 24.4309 60.1969 23.9759 60.0791L23.9036 60.0613C23.6118 59.9881 23.3138 59.9323 23.0095 59.8971C22.8333 59.877 22.6566 59.861 22.4773 59.8538C22.3283 59.8476 22.1793 59.8458 22.0285 59.8489C21.8018 59.8538 21.5788 59.873 21.3593 59.8971C21.2892 59.906 21.2214 59.9181 21.1536 59.927C21.0448 59.9435 20.9372 59.9645 20.8293 59.9841C20.7873 59.993 20.7432 59.9984 20.7012 60.0077C20.6254 60.0238 20.5504 60.0399 20.4755 60.059C20.3283 60.0952 20.1846 60.1358 20.0418 60.1808C19.9754 60.2018 19.9093 60.2188 19.8446 60.2415C19.6515 60.3093 19.4614 60.3834 19.2758 60.4659C19.2018 60.4989 19.1331 60.5369 19.0608 60.5708C18.976 60.6127 18.8921 60.6573 18.8087 60.7001L18.7226 60.7443C18.6307 60.7952 18.541 60.8496 18.4523 60.9036C18.3697 60.954 18.2863 61.0075 18.2064 61.0624C18.1083 61.1271 18.0124 61.1927 17.9191 61.2614C17.8616 61.3055 17.8067 61.3506 17.7491 61.3952C17.5975 61.5152 17.4534 61.6442 17.3115 61.7758C17.2383 61.844 17.1678 61.9136 17.0978 61.9841C16.9738 62.1073 16.8524 62.2326 16.7391 62.3642L16.6815 62.4303C16.6218 62.5016 16.566 62.577 16.5102 62.6515L16.5013 62.6622L16.4942 62.6721C16.4562 62.722 16.4152 62.7702 16.3782 62.8211L16.3635 62.8411L16.3487 62.8612L16.3478 62.863L16.3469 62.8643C16.1181 63.1847 15.9173 63.5255 15.7433 63.8802C15.7179 63.9311 15.6951 63.9833 15.6711 64.035C15.5907 64.2086 15.5167 64.3861 15.4498 64.5672C15.4234 64.6391 15.394 64.7087 15.3695 64.7814L15.3686 64.7823V64.7827L15.3677 64.7841C15.3066 64.9683 15.2526 65.1548 15.2066 65.3475L15.1892 65.4189L15.1723 65.5095L15.17 65.5175C15.1384 65.6567 15.108 65.7959 15.0862 65.9373C15.075 66.0069 15.0679 66.0779 15.059 66.1483L15.0558 66.1684C15.0469 66.2434 15.0393 66.3192 15.0317 66.3951C15.025 66.4517 15.0166 66.5093 15.0121 66.5673C14.9956 66.7903 14.9885 67.0152 14.9938 67.2432C14.9983 67.4194 15.0139 67.5925 15.0304 67.766L15.0317 67.7759L15.0375 67.8566C15.0469 67.9525 15.0634 68.0471 15.0777 68.1421C15.129 68.4879 15.1995 68.8261 15.299 69.1531C15.373 69.4025 15.46 69.6452 15.5604 69.8821C15.7442 70.3175 15.9726 70.7275 16.2336 71.1129C16.7828 71.9262 17.4886 72.6231 18.3131 73.1545C18.7806 73.4556 19.2861 73.7005 19.8197 73.8879C20.3318 74.069 20.8663 74.2006 21.4235 74.2618C21.5489 74.2747 21.6756 74.2841 21.8027 74.293C21.9928 74.3055 22.1824 74.3135 22.376 74.3095C22.5545 74.3055 22.728 74.2836 22.9034 74.2667C23.0033 74.2573 23.1063 74.2564 23.2054 74.2426C23.4575 74.2073 23.7046 74.156 23.9478 74.0954L24.0026 74.0833C24.1039 74.057 24.198 74.02 24.2962 73.9896C24.6022 73.8964 24.8985 73.784 25.1862 73.6515L25.2487 73.6238C25.329 73.5894 25.412 73.5564 25.4896 73.5167L25.499 73.5132C25.3584 72.7391 25.2518 71.945 25.1755 71.1335C25.1706 71.0755 25.1626 71.0197 25.1563 70.9621Z" fill="#FCE9C9"/>
<path d="M55.274 7.95898L55.4074 8.0268L55.4052 8.00895L55.274 7.95898Z" fill="#4D94C3"/>
<path d="M94.5602 80.5406C94.5504 80.5026 94.542 80.4683 94.5339 80.4353C94.5112 80.351 94.4947 80.2872 94.4826 80.243C94.264 79.5332 93.987 78.9786 93.7403 78.5834C93.4248 78.073 93.1634 77.8209 93.1634 77.8209C93.216 77.6411 93.2575 77.4658 93.295 77.2931C93.3427 77.067 93.3802 76.8457 93.4057 76.6311C93.5957 75.013 93.1625 73.754 92.8159 73.0433C92.7605 72.9295 92.7083 72.8318 92.6606 72.7466C92.4108 72.9241 92.1578 73.0995 91.9053 73.2703C87.1085 76.5182 81.7093 78.6021 75.8636 79.4979C71.835 80.1154 67.5967 80.173 63.1902 79.6367L63.267 79.659C63.267 79.659 60.6111 80.0226 59.8906 82.5705L59.9357 82.5964L59.7162 84.3051C59.7938 86.6192 60.8516 88.0673 62.0557 88.8293C63.3071 89.3067 64.8182 89.6707 66.4965 89.8791C69.417 90.2422 72.7692 90.1463 76.1911 89.6029L76.2085 89.6002L76.2259 89.598C80.7769 88.9877 87.2008 86.5576 91.7929 83.4208C92.8391 82.7061 93.7907 81.9562 94.6031 81.1808L94.6334 81.1513L94.6887 81.0978C94.6428 80.8819 94.5977 80.6909 94.5602 80.5406Z" fill="white"/>
<path d="M85.8782 58.4874C83.4146 56.9866 83.0532 56.4887 83.2834 52.4128C83.366 50.945 83.5248 49.0159 83.6885 46.4007C83.7104 46.0603 83.7207 45.7373 83.7265 45.4197C83.7278 45.3438 83.7296 45.2697 83.7296 45.1952C83.7318 44.895 83.7287 44.6019 83.7171 44.3204L83.7144 44.2396L83.7077 44.1531C83.6952 43.9318 83.6796 43.7168 83.6613 43.5075C83.6528 43.4156 83.6439 43.3233 83.6345 43.2327C83.61 43.0092 83.5819 42.7919 83.5471 42.5822C83.5297 42.4752 83.5087 42.3721 83.4891 42.2677C83.4672 42.1504 83.4436 42.0357 83.4191 41.9233C83.395 41.8126 83.3704 41.7011 83.3432 41.5945L83.3423 41.594L83.3432 41.5927C82.9921 41.0707 82.575 40.6041 82.086 40.2074L81.9901 40.1361L81.9709 40.1213L81.8986 40.0674L81.8741 40.0491C81.8036 39.9946 81.7295 39.9416 81.6564 39.8929C81.5774 39.8407 81.4989 39.7894 81.4186 39.7412C80.6901 39.2982 79.8781 39.0198 79.009 38.8909C78.529 38.8204 78.0315 38.7954 77.5216 38.8151C77.2847 38.8235 77.0451 38.8445 76.8038 38.8731C76.1756 38.9467 75.5323 39.081 74.8796 39.2795C74.6601 39.4303 74.441 39.5846 74.2193 39.7386C74.0337 39.8679 73.8446 39.9973 73.6545 40.1258L73.563 40.1887C73.3716 40.3172 73.178 40.4426 72.984 40.5675L72.8863 40.6286C72.6908 40.75 72.495 40.8682 72.2974 40.9806L72.1934 41.0382C71.9949 41.1501 71.7928 41.2545 71.5889 41.3545L71.4872 41.4022C71.2811 41.5003 71.0705 41.5918 70.8577 41.6721L70.7698 41.7056C70.5503 41.7859 70.3272 41.8595 70.1006 41.9193L70.0412 41.9331C69.8017 41.9947 69.5621 42.0442 69.3158 42.0777C68.9023 42.1334 68.4891 42.1517 68.0738 42.1535C67.3975 42.1566 66.7189 42.1017 66.0372 42.0005C65.8101 41.9661 65.5808 41.926 65.3524 41.884C65.2712 41.8689 65.1904 41.8564 65.1101 41.8408C64.5159 41.7252 63.918 41.5873 63.3162 41.4424C63.0632 41.3821 62.8107 41.321 62.5569 41.2594C62.1491 41.16 61.7373 41.064 61.3251 40.9699C61.2435 40.9512 61.1645 40.9306 61.082 40.9128C60.7362 40.9315 60.3891 40.9654 60.0407 41.0092L59.9648 41.0185C58.9539 41.151 57.9371 41.3919 56.9325 41.7395C56.8767 41.7587 56.8209 41.7752 56.766 41.7952C56.609 41.851 56.4533 41.9121 56.2972 41.9737C56.0879 42.0567 55.8791 42.1428 55.6717 42.2347C54.2164 42.8771 52.803 43.7511 51.4892 44.862C50.9569 45.3121 50.459 45.789 49.9928 46.2838C49.2777 47.0445 48.645 47.8547 48.0909 48.697C48.0602 48.7443 48.0298 48.7911 48.0004 48.8384C47.7046 49.2966 47.4338 49.7637 47.1889 50.2388C47.1005 50.4083 47.0113 50.5783 46.9301 50.7496L46.9136 50.7831C46.6495 51.3425 46.4206 51.9109 46.2234 52.4847C46.2123 52.519 46.2025 52.5534 46.1926 52.5873C46.1645 52.6707 46.1431 52.7546 46.1168 52.8375C46.0325 53.1039 45.9553 53.372 45.8844 53.6397C45.813 53.9176 45.7452 54.1965 45.6894 54.4753C45.6782 54.5351 45.6649 54.5953 45.6546 54.6555C45.6225 54.826 45.5917 54.9964 45.5649 55.1668C45.4699 55.7936 45.4177 56.4191 45.4043 57.0406C45.3999 57.1967 45.3941 57.3542 45.3958 57.509C45.6782 58.5334 46.0869 59.456 46.571 60.2943C48.4157 63.4814 51.449 65.3873 53.6467 66.4103C54.5015 66.7873 55.3937 67.1241 56.3208 67.4199L56.3444 67.4601L56.3453 67.4605L56.3494 67.4587L56.4091 67.4128C56.5274 67.3227 56.6456 67.2326 56.7678 67.1433C56.8107 67.1099 56.8548 67.0786 56.8985 67.0465C57.023 66.9555 57.1511 66.8627 57.2818 66.7717C57.3255 66.7414 57.3701 66.7106 57.4152 66.6798C57.5463 66.5883 57.6811 66.4955 57.8185 66.405C57.864 66.3742 57.9099 66.3447 57.9563 66.3144C58.0951 66.2225 58.2361 66.131 58.3806 66.04C58.4288 66.0101 58.4756 65.9802 58.5234 65.9508C58.6701 65.8607 58.8174 65.7706 58.9664 65.68C59.0177 65.6497 59.0699 65.6189 59.1212 65.5876C59.2711 65.5006 59.4228 65.4119 59.5785 65.3235C59.6347 65.2932 59.6905 65.2615 59.7467 65.2298C59.8993 65.1433 60.0554 65.0585 60.2142 64.9738C60.2767 64.9403 60.3396 64.9064 60.4038 64.8734C60.56 64.7904 60.7184 64.7083 60.879 64.6271C60.9477 64.5928 61.0164 64.558 61.086 64.5232C61.2457 64.4433 61.4076 64.3643 61.57 64.2858C61.6472 64.2488 61.7257 64.2127 61.8034 64.1756C61.9631 64.1002 62.125 64.0253 62.2896 63.9508C62.3749 63.9111 62.4641 63.8732 62.552 63.8339C62.7112 63.763 62.8732 63.692 63.0383 63.6224C63.1346 63.58 63.2341 63.539 63.3318 63.4984C63.4911 63.4319 63.6526 63.3659 63.8163 63.2994C63.9252 63.2561 64.0363 63.2129 64.1465 63.1691C64.3048 63.1076 64.4637 63.0456 64.6256 62.9844C64.747 62.9381 64.8705 62.8921 64.9923 62.8479C65.1494 62.7904 65.3046 62.7328 65.4648 62.6762C65.6 62.6289 65.7374 62.5816 65.8743 62.5343C66.0278 62.4812 66.1817 62.4272 66.3379 62.3768C66.4878 62.3264 66.6395 62.2782 66.7911 62.2296C66.9411 62.181 67.0901 62.1328 67.2422 62.0855C67.4086 62.0333 67.5777 61.9829 67.7486 61.9316C67.8909 61.8901 68.0336 61.8459 68.1791 61.8044C68.3629 61.7504 68.5512 61.6987 68.7376 61.6465C68.8318 61.6211 68.9223 61.5925 69.0165 61.5684C69.7459 59.7321 71.911 55.1784 75.6197 54.6801C76.0186 54.6225 76.3786 54.6016 76.7194 54.598C76.8047 54.5971 76.8961 54.5909 76.9773 54.5926C76.9345 54.3285 76.9006 54.0533 76.8832 53.7673C76.7672 51.8052 77.3704 50.1741 78.2301 50.1224C78.8961 50.0684 79.4257 51.041 79.5163 51.3814C79.7692 51.9778 79.9468 52.7398 79.9981 53.5853C80.0436 54.3575 79.9722 55.0705 79.825 55.6647C79.8999 55.7419 79.9615 55.8275 80.0289 55.9096C80.8783 56.9638 81.022 58.4263 80.9872 59.4622C81.3173 59.4287 81.6564 59.3998 81.9954 59.3708C82.0815 59.3627 82.1663 59.3547 82.2542 59.3467L82.3077 59.3417C82.3568 59.3368 82.4059 59.3342 82.4545 59.3302C82.8739 59.2954 83.2982 59.2628 83.7287 59.232L83.7479 59.2311C84.7227 59.1633 85.7238 59.1057 86.7566 59.0616C86.2199 58.6672 85.8782 58.4874 85.8782 58.4874Z" fill="#EFCFA5"/>
<path d="M95.2101 85.9551C93.5876 87.4001 91.8887 88.5601 90.2032 89.4912C89.3618 89.9547 88.5257 90.3571 87.7026 90.7149C85.8725 91.5121 84.117 92.0663 82.5702 92.4432C79.1569 93.2748 76.7495 93.2766 76.7495 93.2766C78.6161 94.309 80.9789 94.3188 82.5997 94.1551C83.715 94.044 84.4819 93.8521 84.4819 93.8521C84.4471 94.5374 84.3615 95.1678 84.2392 95.7562C84.1036 96.4076 83.918 96.9992 83.6958 97.5403L83.6784 97.5867L83.6767 97.5898C83.3987 98.2591 83.0641 98.8462 82.6911 99.3637C82.6505 99.4195 82.6113 99.4792 82.5702 99.5332L82.6929 99.465C83.2845 99.1415 83.8712 98.7944 84.4534 98.4281L84.4663 98.4201C84.9035 98.1448 85.3367 97.8566 85.7655 97.5577C86.4833 97.0518 87.1944 96.5191 87.8873 95.94L87.8891 95.9391L87.8917 95.9369C87.9315 95.9017 87.9725 95.8673 88.0144 95.8321C88.701 95.232 89.3439 94.615 89.9408 93.9869C90.7296 93.1571 91.4381 92.3094 92.0792 91.4591L92.1265 91.3979C92.2831 91.1883 92.4365 90.9795 92.5855 90.7729L92.6275 90.7122C92.6761 90.6413 92.7189 90.5739 92.7671 90.5039C92.9741 90.2059 93.1789 89.9074 93.3707 89.6112C93.4167 89.5402 93.464 89.468 93.5099 89.3966C93.6094 89.2395 93.7053 89.0825 93.8013 88.9277C93.8735 88.8059 93.9476 88.6845 94.0176 88.5641C94.0957 88.4329 94.1742 88.3013 94.2501 88.171C94.3844 87.9341 94.5155 87.699 94.6413 87.4653C94.6909 87.3725 94.7377 87.2823 94.7859 87.1909C94.8818 87.0089 94.9759 86.8291 95.0647 86.6511C95.1062 86.5681 95.1481 86.4851 95.1883 86.4026L95.2249 86.3245C95.3364 86.1001 95.4426 85.877 95.5456 85.658C95.4332 85.7601 95.3217 85.8569 95.2101 85.9551Z" fill="#EFCFA5"/>
<path d="M54.5389 67.9861C54.079 68.1409 53.5717 68.3274 53.0368 68.5487C51.6101 69.1398 49.991 69.9803 48.5563 71.1412C48.3765 71.2862 48.2002 71.4361 48.0271 71.5909C47.7327 71.8559 47.4521 72.1383 47.1822 72.4341C47.1514 72.4675 47.1184 72.4997 47.0889 72.5336C47.0479 72.5791 47.0077 72.6264 46.9676 72.6723C46.8658 72.7914 46.765 72.9132 46.6669 73.0372C46.6276 73.0872 46.5888 73.1367 46.5495 73.1867C46.4206 73.3571 46.2948 73.5298 46.1757 73.7091C46.0588 73.8849 45.9464 74.0665 45.8402 74.2507C44.9899 75.735 44.5076 77.512 44.6557 79.6311L44.6602 79.6093L44.6628 79.5936C44.6664 79.5745 44.6718 79.5477 44.6784 79.5147L44.6829 79.4973C44.6892 79.4652 44.6985 79.4272 44.7083 79.3853L44.7141 79.359C44.7257 79.3108 44.7396 79.2555 44.7552 79.1953L44.7659 79.156C44.7833 79.0917 44.8025 79.0221 44.8239 78.9468L44.8248 78.9463C44.8457 78.8722 44.8721 78.7924 44.8979 78.7099L44.9149 78.6594C44.9426 78.5756 44.9729 78.4877 45.0064 78.3971L45.0238 78.3538C45.0545 78.2682 45.0889 78.1803 45.1264 78.0897L45.1438 78.0478C45.1839 77.9501 45.2285 77.8493 45.2745 77.7466L45.3044 77.6829C45.3539 77.578 45.4043 77.4718 45.461 77.3643V77.3639C45.4632 77.3594 45.4659 77.3554 45.4681 77.3514C45.552 77.1908 45.6466 77.027 45.7474 76.8624C45.7853 76.7999 45.8219 76.7379 45.8638 76.6755L45.896 76.6233L45.8968 76.6219C45.9829 76.493 46.0735 76.3641 46.1712 76.2365C46.2506 76.1321 46.3349 76.0286 46.4219 75.9255C46.4492 75.8934 46.4786 75.8613 46.5076 75.8292C46.5772 75.7511 46.6495 75.673 46.7244 75.5963C46.7552 75.5655 46.7855 75.5338 46.8163 75.5035C46.9189 75.4031 47.0242 75.305 47.1358 75.2099L47.1451 75.201V75.2014V75.201C47.1451 75.201 45.2151 79.5678 46.0543 83.0302C46.0543 83.0302 46.0534 83.0195 46.0534 83.0012V82.9798C46.0525 82.9606 46.0525 82.9383 46.0525 82.9089C46.0525 82.9031 46.0525 82.8964 46.0521 82.8901C46.0525 82.8545 46.0525 82.8134 46.0543 82.7643C46.0543 82.7581 46.0543 82.7523 46.0552 82.7452C46.0552 82.6938 46.0588 82.6367 46.0615 82.5729C46.0615 82.5671 46.0624 82.5604 46.0624 82.5546C46.0659 82.4891 46.0699 82.4172 46.0757 82.341C46.0757 82.3338 46.0762 82.328 46.0771 82.3218C46.0833 82.2437 46.09 82.1616 46.0998 82.0746C46.1007 82.0679 46.1016 82.0608 46.1025 82.0532C46.111 81.9662 46.1235 81.8761 46.1364 81.7811C46.1373 81.7726 46.1391 81.7641 46.14 81.7556C46.1547 81.6552 46.1712 81.5508 46.1913 81.4433L46.1958 81.4179L46.206 81.3639V81.3617C46.2297 81.2408 46.2578 81.1172 46.2899 80.9918C46.2921 80.9838 46.2939 80.9753 46.2957 80.9669C46.3287 80.8446 46.3639 80.721 46.4032 80.5966C46.4157 80.5582 46.4273 80.5207 46.4398 80.4824L46.4666 80.4029V80.4016C46.5031 80.2994 46.5433 80.1973 46.5866 80.0956L46.5933 80.079L46.5937 80.0782C46.6539 79.9358 46.7244 79.798 46.7994 79.661C46.8186 79.6249 46.84 79.5887 46.8609 79.5535C46.9408 79.4183 47.0247 79.2858 47.1201 79.1605L47.1242 79.1542V79.1551V79.1542H47.1246C47.1246 79.1542 47.014 80.2294 47.0425 81.5089C47.0479 81.7101 47.0572 81.9171 47.0702 82.1255C47.0782 82.2642 47.0871 82.4039 47.1001 82.543C47.1853 81.1681 47.4365 79.8765 47.8023 78.6719C47.9045 78.34 48.016 78.0166 48.1342 77.6976C48.1507 77.6516 48.1668 77.6057 48.1842 77.5597C48.2984 77.2581 48.4193 76.9646 48.5456 76.6755C48.5701 76.6215 48.5942 76.5675 48.6178 76.5135C48.7468 76.228 48.8802 75.9478 49.0198 75.6743C49.0425 75.632 49.064 75.5905 49.0858 75.5485C49.3821 74.9779 49.7001 74.435 50.0303 73.9215C50.0548 73.8836 50.0785 73.8461 50.1026 73.8086C50.2284 73.6163 50.3573 73.4312 50.4862 73.2474C50.5197 73.1987 50.5523 73.147 50.5862 73.0993C50.6179 73.056 50.6473 73.0131 50.6785 72.9703C50.8427 72.7437 51.0073 72.5228 51.1737 72.3091C51.2005 72.2752 51.2268 72.2418 51.2531 72.2088C51.4262 71.9893 51.5989 71.7751 51.7724 71.5708L51.7818 71.5596C52.0004 71.3013 52.2186 71.0546 52.4345 70.8195C52.5933 70.6473 52.7504 70.4818 52.9061 70.3221C52.9645 70.2623 53.0252 70.2029 53.0854 70.1423C53.4575 69.7666 53.8166 69.4293 54.1512 69.1304C55.155 68.2319 55.9367 67.6769 56.2093 67.4927C56.0455 67.5337 55.8537 67.5846 55.6413 67.6448C55.3197 67.7354 54.9485 67.8482 54.5389 67.9861Z" fill="#EFCFA5"/>
<path d="M80.2098 58.317C80.2098 58.317 80.1991 58.2054 80.1594 58.0372C80.0024 57.3988 79.3716 55.8927 76.887 56.1314C74.2896 56.3816 73.4174 58.4776 73.1935 59.1918C73.1475 59.34 73.1274 59.4332 73.1274 59.4332L73.1979 59.4934C73.5272 59.2137 74.1558 59.2467 74.7255 59.6085C74.986 59.774 75.1935 59.9828 75.3354 60.2028V60.2037C75.5549 60.5418 75.616 60.9063 75.4607 61.1771C75.4277 61.2351 75.3862 61.2842 75.3385 61.3275C75.3385 61.3275 75.4384 61.3659 75.6071 61.4149C76.3289 61.6277 78.3303 62.0476 79.4135 60.6489C79.4657 60.5816 79.5188 60.5191 79.5665 60.4441C79.3533 60.3353 79.2341 60.0225 79.2337 59.6518C79.2319 59.4733 79.2564 59.2824 79.314 59.0919C79.4916 58.5043 79.8935 58.1573 80.2098 58.317Z" fill="#EFCFA5"/>
<path d="M67.3331 77.3966C65.6521 77.7432 64.1821 78.0015 63.0417 78.1853C63.106 78.1934 63.1653 78.201 63.2322 78.2094C65.139 78.4463 68.1754 78.7327 71.8476 78.5088C78.528 78.1019 87.3209 75.9997 95.3054 68.8L95.3272 68.7719V68.7594C95.354 68.1562 95.2732 67.0672 94.5112 66.22C94.3783 66.0719 94.223 65.9318 94.0464 65.802C94.0165 65.7846 93.9888 65.7649 93.958 65.7475C93.7483 65.6302 93.5654 65.5115 93.3955 65.3942C93.254 65.3054 93.1206 65.2171 93.0024 65.1292L92.985 65.1038C92.4943 65.8095 91.9254 66.481 91.2884 67.1203C91.0626 67.346 90.823 67.5638 90.5817 67.7815C88.3787 69.7659 85.5323 71.4184 82.4598 72.7795C77.3538 75.041 71.6468 76.5083 67.3331 77.3966Z" fill="#EFCFA5"/>
<path d="M25.0467 65.7615C24.9744 65.8258 24.9003 65.8887 24.8325 65.9601L24.758 66.0422C24.6782 66.1314 24.6005 66.2251 24.5283 66.3246L24.4899 66.3728C24.4002 66.4977 24.3168 66.6288 24.2374 66.7622V66.7627L24.2271 66.7801L24.2267 66.781L24.1945 66.8403C24.1763 66.8729 24.1589 66.9063 24.1415 66.9393C24.0955 67.0228 24.0482 67.104 24.0072 67.1883L24.0049 67.1914L24.0036 67.1941L24.0014 67.2012L23.9853 67.2329L23.9706 67.2646C23.9063 67.398 23.8479 67.5305 23.793 67.6612C23.6378 68.0288 23.5178 68.379 23.4276 68.6717C23.3964 68.7756 23.367 68.8742 23.3433 68.9612C23.2911 69.1499 23.2545 69.2976 23.238 69.3699L23.2371 69.3761L23.2255 69.4248V69.4239V69.4248L23.23 69.3681C23.2362 69.2557 23.2492 69.1441 23.2581 69.0326C23.2755 68.7979 23.2902 68.5624 23.3161 68.3295C23.3366 68.1332 23.367 67.9414 23.3946 67.7464C23.4035 67.6857 23.4129 67.6246 23.4218 67.5644C23.4339 67.4747 23.4464 67.385 23.4611 67.2958C23.474 67.2124 23.4923 67.1303 23.5079 67.0486L23.5088 67.0424V67.042L23.5262 66.9505L23.5316 66.9255C23.5499 66.8256 23.5691 66.7239 23.5883 66.6239C23.5949 66.5851 23.6021 66.5463 23.6101 66.5075L23.6239 66.4383L23.6266 66.4254C23.6333 66.3928 23.6404 66.3594 23.6476 66.3272C23.6556 66.2862 23.6668 66.2465 23.6752 66.2077C23.7083 66.0609 23.744 65.9168 23.7783 65.7718L23.7841 65.7477C23.8095 65.6398 23.8332 65.5313 23.8608 65.4252L23.8617 65.4203L23.8644 65.4131L23.8729 65.3819C23.9295 65.1633 23.9924 64.9496 24.0554 64.7341L24.0884 64.6154C24.1004 64.5757 24.1107 64.5338 24.1232 64.4936C24.2271 64.1443 24.3382 63.7994 24.4564 63.4622L24.4716 63.4198C24.5729 63.1334 24.6755 62.8514 24.783 62.5735L24.795 62.5418C24.8437 62.4195 24.8936 62.3022 24.9414 62.1813L24.9494 62.1635C25.0226 61.9832 25.0948 61.8021 25.1698 61.6277L25.1702 61.6259V61.625L25.1716 61.6227L25.1801 61.6009C25.2001 61.5572 25.2465 61.451 25.3188 61.2948L25.3201 61.2922L25.33 61.2712V61.2707C25.3581 61.2092 25.3848 61.1494 25.4121 61.0869C25.4562 60.9875 25.5008 60.8893 25.5446 60.7916L25.5843 60.7059C25.5218 60.672 25.4562 60.6417 25.392 60.6096L25.3554 60.5913L25.2871 60.5569C24.87 60.3571 24.431 60.1969 23.9759 60.0791L23.9037 60.0613C23.6119 59.9881 23.3139 59.9323 23.0096 59.8971C22.8334 59.877 22.6567 59.861 22.4774 59.8538C22.3284 59.8476 22.1794 59.8458 22.0286 59.8489C21.8019 59.8538 21.5789 59.873 21.3594 59.8971C21.2889 59.9056 21.2215 59.9181 21.1537 59.927C21.0448 59.9435 20.9373 59.9645 20.8293 59.9841C20.7874 59.993 20.7432 59.9984 20.7013 60.0077C20.6255 60.0238 20.5505 60.0399 20.4756 60.059C20.3283 60.0952 20.1847 60.1358 20.0419 60.1808C19.9754 60.2018 19.9094 60.2188 19.8447 60.2415C19.6516 60.3093 19.4615 60.3834 19.2759 60.4659C19.2018 60.4989 19.1331 60.5369 19.0609 60.5712C18.9761 60.6127 18.8922 60.6573 18.8088 60.7001L18.7227 60.7443C18.6308 60.7952 18.5411 60.8496 18.4523 60.9036C18.3698 60.954 18.2864 61.0075 18.2065 61.0624C18.1084 61.1271 18.0125 61.1927 17.9192 61.2614C17.8617 61.3055 17.8068 61.3506 17.7492 61.3952C17.5975 61.5152 17.4534 61.6442 17.3116 61.7758C17.2384 61.844 17.1679 61.9136 17.0979 61.9841C16.9738 62.1073 16.8534 62.2326 16.7392 62.3642L16.6816 62.4303C16.6218 62.5016 16.5661 62.577 16.5103 62.6515L16.5014 62.6622L16.4943 62.6721C16.4563 62.722 16.4153 62.7702 16.3783 62.8215L16.3635 62.8411L16.3488 62.8612L16.3479 62.863L16.347 62.8643C16.1182 63.186 15.9174 63.5264 15.7434 63.882C15.718 63.9324 15.6952 63.9837 15.672 64.035C15.5908 64.2086 15.5177 64.3861 15.4498 64.5672C15.4235 64.6391 15.3941 64.7087 15.3695 64.7814L15.3687 64.7823V64.7827C15.3825 64.8296 15.3981 64.8737 15.4124 64.9197C15.4619 65.0807 15.5123 65.2369 15.5654 65.3886L15.5837 65.4408L15.6038 65.4934C15.6595 65.6496 15.7171 65.799 15.7764 65.9449C15.9567 66.3915 16.1467 66.7903 16.335 67.1437C16.3635 67.1954 16.3916 67.2499 16.4193 67.2994L16.4394 67.3364L16.4657 67.3806C16.6076 67.6326 16.7463 67.8553 16.8753 68.0502C17.0805 68.3598 17.2603 68.5954 17.3883 68.7542C17.4164 68.7886 17.4405 68.8171 17.4624 68.8443C17.4815 68.8671 17.4989 68.8876 17.5155 68.9055C17.5641 68.9617 17.5944 68.9938 17.5944 68.9942C17.5757 68.9148 17.5663 68.8368 17.5498 68.7565C17.4338 68.1867 17.3736 67.6242 17.3589 67.0732L17.3584 67.0406L17.3571 66.9768C17.3508 66.6239 17.3562 66.2742 17.3843 65.9342H17.3847C17.4209 66.0649 17.4597 66.1912 17.4989 66.3161C17.5583 66.5044 17.6194 66.6877 17.6828 66.864L17.7046 66.9273L17.7135 66.9501C17.9915 67.7018 18.3078 68.3335 18.604 68.8426C18.9583 69.4524 19.2826 69.8843 19.4762 70.1216C19.5155 70.1694 19.5485 70.2095 19.5766 70.2412C19.6315 70.305 19.6618 70.3376 19.6618 70.3376C19.5217 69.7322 19.4508 69.1339 19.4285 68.5477C19.4205 68.35 19.4133 68.1524 19.4169 67.9592C19.4205 67.7116 19.4334 67.4676 19.4535 67.2271V67.228V67.2271C19.5614 67.6384 19.6855 68.019 19.818 68.3777L19.8273 68.4053C20.3034 69.6951 20.8909 70.6436 21.2965 71.2057L21.3428 71.2678C21.4142 71.3632 21.4758 71.4435 21.5316 71.5158C21.5699 71.564 21.6065 71.6108 21.6373 71.6456C21.6766 71.6934 21.706 71.7286 21.7301 71.7549C21.76 71.7888 21.7783 71.8103 21.7783 71.8103L21.7618 71.7259C21.7435 71.6412 21.7261 71.5573 21.7096 71.4734C21.6511 71.1709 21.6128 70.8702 21.5842 70.5731C21.565 70.3746 21.5467 70.1761 21.5396 69.9807C21.5325 69.7942 21.5334 69.6104 21.536 69.427C21.5369 69.394 21.5383 69.361 21.5387 69.328C21.5418 69.2329 21.5441 69.1379 21.549 69.0438L21.5525 68.9858L21.5561 68.9438C21.5708 68.7025 21.5918 68.4633 21.6217 68.2291V68.23V68.2291C21.6676 68.3848 21.7163 68.5365 21.7662 68.6824C21.8037 68.7939 21.843 68.8997 21.8822 69.0063L21.8907 69.0281L21.9036 69.0652L21.9273 69.1303C21.9755 69.2579 22.025 69.3802 22.0754 69.5015C22.1713 69.7277 22.2672 69.9414 22.3658 70.1417C22.485 70.3884 22.6063 70.6159 22.7236 70.8243C22.7919 70.9416 22.857 71.0523 22.9217 71.158C23.0034 71.2909 23.0828 71.415 23.1586 71.5274C23.2282 71.6309 23.2929 71.7219 23.3545 71.8076C23.3701 71.8285 23.3862 71.8504 23.4009 71.8709C23.4584 71.949 23.5133 72.0226 23.5619 72.0842C23.5985 72.131 23.6324 72.173 23.6632 72.2104C23.7431 72.3077 23.7997 72.3715 23.8251 72.3991L23.8399 72.4148L23.8907 72.4496C23.8956 72.4067 23.9019 72.3648 23.9072 72.3215C23.9523 71.9463 24.0045 71.568 24.0603 71.1919C24.0665 71.1464 24.0736 71.1013 24.0803 71.0567C24.1455 70.6329 24.2142 70.2117 24.2856 69.8053C24.2949 69.7522 24.3034 69.7009 24.3132 69.6487L24.3186 69.622C24.327 69.5751 24.3351 69.5274 24.3436 69.4805C24.3556 69.4105 24.3681 69.3404 24.381 69.2713C24.4395 68.9492 24.4997 68.6378 24.5581 68.3424C24.6112 68.0757 24.6625 67.8231 24.7121 67.5853L24.7277 67.5086C24.7348 67.4711 24.7428 67.4372 24.7504 67.4015C24.758 67.3667 24.7652 67.3306 24.7723 67.2945L24.775 67.282C24.7879 67.2226 24.8013 67.1615 24.8133 67.1053L24.8169 67.0897C24.8281 67.0339 24.8388 66.9866 24.8499 66.9344C24.8682 66.8528 24.8856 66.7689 24.9026 66.6926L24.9075 66.6712C24.9213 66.6092 24.9342 66.5463 24.9472 66.4896C24.9659 66.408 24.9833 66.333 24.998 66.2621L24.9989 66.2599L24.9998 66.2581C25.0087 66.2175 25.0172 66.1823 25.0257 66.1448L25.0275 66.1381C25.0355 66.1042 25.0427 66.0685 25.0502 66.0386C25.0676 65.9636 25.0832 65.8958 25.0957 65.8436L25.1069 65.7972L25.1114 65.7803L25.1243 65.7254L25.1332 65.6875L25.135 65.6821L25.1288 65.687L25.0467 65.7615Z" fill="#EFCFA5"/>
<path d="M79.1138 84.4255C79.7438 84.2078 80.2925 84.0316 80.7181 83.846C81.5711 83.4828 82.0293 83.2379 82.0008 83.1473C81.9718 83.055 81.4569 83.1246 80.5508 83.3294C80.0971 83.4355 79.5475 83.5279 78.9153 83.6698C78.6012 83.7452 78.2541 83.7884 77.8945 83.858C77.5323 83.9209 77.1513 84.0003 76.7489 84.0436C75.9552 84.156 75.0473 84.2587 74.0832 84.3706C73.6081 84.4094 73.1178 84.45 72.6136 84.4906C72.1046 84.5161 71.5817 84.542 71.045 84.5683C68.9004 84.6312 66.5332 84.5339 64.1246 84.0909C62.8544 83.8674 61.1569 83.2905 59.9358 82.5972L59.8907 82.5714C60.6112 80.0235 63.2671 79.6599 63.2671 79.6599L63.1904 79.6376C63.1462 79.6322 63.1016 79.6278 63.0565 79.6224C62.6702 79.5747 62.3307 79.5283 62.0393 79.489C61.8314 79.4614 61.649 79.4364 61.495 79.4172C61.3469 79.3989 61.2412 79.3877 61.1796 79.3837C59.5798 79.274 58.7031 80.6289 58.4002 81.216C58.3569 81.3008 58.3172 81.3878 58.2771 81.4766C58.046 82.003 57.8925 82.6102 57.8515 83.2517C57.7725 84.4492 58.0808 85.7639 58.9985 86.8833C59.6101 87.6381 60.675 88.3038 62.0558 88.8302C60.8517 88.0682 59.7939 86.62 59.7163 84.3059C61.0801 84.8922 62.6693 85.2509 63.8631 85.4632C66.4199 85.9343 68.8875 85.9906 71.1052 85.8545C71.6593 85.8081 72.1987 85.7675 72.7225 85.7148C73.2467 85.6466 73.7557 85.581 74.2492 85.5172C75.2088 85.3553 76.0944 85.1987 76.926 85.0153C77.3404 84.9377 77.725 84.8239 78.089 84.7249C78.4531 84.6191 78.7984 84.5397 79.1138 84.4255Z" fill="#EFCFA5"/>
<path d="M76.9929 54.6039C78.3287 54.6351 79.2357 55.059 79.8406 55.676C79.9878 55.0813 80.0601 54.3683 80.0128 53.5961C79.9615 52.7511 79.7849 51.9891 79.5319 51.3917C79.4422 51.0522 78.9118 50.0792 78.2452 50.1327C77.3851 50.1849 76.7837 51.8165 76.8997 53.7781C76.9162 54.0645 76.9492 54.3393 76.9929 54.6039Z" fill="#59473D"/>
<path d="M79.249 59.6634C79.2504 60.0345 79.3691 60.3468 79.5819 60.4557C79.9013 60.6154 80.2997 60.2665 80.4768 59.6785C80.4933 59.6272 80.5027 59.5759 80.5147 59.5255V59.5242C80.628 58.9901 80.5125 58.4735 80.2247 58.329C79.9084 58.1684 79.5069 58.5163 79.3298 59.103C79.2722 59.2944 79.2482 59.4849 79.249 59.6634Z" fill="#59473D"/>
<path d="M73.1837 60.6103C73.3251 60.8409 73.5388 61.0635 73.8114 61.2375C74.3882 61.6034 75.0289 61.6341 75.3537 61.3397C75.4019 61.2969 75.4433 61.2465 75.4759 61.1889C75.6316 60.9181 75.5705 60.5536 75.3519 60.215L75.351 60.2141C75.2091 59.9951 75.0017 59.7858 74.7411 59.6203C74.1714 59.2585 73.5428 59.225 73.2136 59.5056C73.1596 59.552 73.1109 59.6038 73.0753 59.6667C72.9262 59.929 72.9816 60.2792 73.1837 60.6098V60.6103Z" fill="#59473D"/>
<path d="M95.327 68.7743V68.7622L95.2896 68.8166C95.2949 68.8117 95.3007 68.8077 95.3061 68.8028L95.327 68.7743Z" fill="#59473D"/>
<path d="M94.6342 81.1546L94.6039 81.1836C93.7914 81.9589 92.8389 82.7093 91.7937 83.4241C87.2016 86.5608 80.7777 88.9909 76.2258 89.6008L76.2084 89.6035L76.191 89.6062C72.7691 90.15 69.4168 90.2455 66.4964 89.8823C64.8181 89.6735 63.3079 89.3099 62.0556 88.8321C60.6757 88.3057 59.6108 87.6405 58.9982 86.8856C58.0805 85.7663 57.7723 84.4515 57.8517 83.2541C57.8932 82.6125 58.0466 82.0049 58.2777 81.4789C58.317 81.3901 58.3576 81.3027 58.4004 81.2184C58.7038 80.6313 59.5796 79.2763 61.1803 79.3856C61.241 79.3905 61.3476 79.4008 61.4948 79.4195C61.6487 79.4383 61.8316 79.4633 62.04 79.4914C62.3304 79.5306 62.6708 79.5766 63.0572 79.6243C63.1022 79.6301 63.146 79.6346 63.1901 79.6395C67.5966 80.1757 71.8349 80.1186 75.8635 79.5012C81.7092 78.6054 87.1092 76.521 91.9052 73.2736C92.1586 73.1023 92.4107 72.9274 92.6605 72.7494L95.2896 68.8171C87.3104 76.0053 78.5247 78.1048 71.8474 78.5117C68.1752 78.7361 65.1388 78.4497 63.233 78.2128C63.1651 78.2043 63.1067 78.1967 63.0416 78.1882C62.4696 78.1155 62.0034 78.0495 61.6706 78.0075C61.5042 77.9866 61.3699 77.9723 61.2691 77.9656C60.769 77.9317 60.2929 77.9937 59.8486 78.1329C58.9398 78.4171 58.1635 79.0305 57.5804 79.8438C56.8599 80.8463 56.4356 82.1499 56.4156 83.5133C56.4017 84.6353 56.6627 85.7948 57.265 86.858C57.2887 86.9008 57.3114 86.9445 57.3368 86.9878C57.4064 87.1042 57.4814 87.2189 57.5595 87.3318C57.6652 87.4861 57.7763 87.6387 57.8985 87.7873C59.2972 89.5116 62.3059 90.7947 66.3202 91.2939C69.0363 91.6316 72.215 91.6044 75.6627 91.1181C85.823 89.2818 90.6529 85.9987 92.8836 83.6926C93.0464 83.5244 93.1963 83.3607 93.3328 83.2037C94.1323 82.2815 94.4923 81.5722 94.6235 81.2657L94.6418 81.2237C94.6752 81.1443 94.6886 81.1024 94.6891 81.1006L94.6342 81.1546Z" fill="#59473D"/>
<path d="M62.3007 45.92C61.9804 45.7455 61.6306 45.6211 61.2777 45.5336C61.0444 45.4761 60.8097 45.435 60.5781 45.406C60.4912 45.3953 60.4046 45.3873 60.3176 45.3802C59.1282 45.2762 58.0999 45.4774 58.0999 45.4774C57.8795 45.5278 57.668 45.5849 57.4637 45.6474C55.8482 46.1373 54.7235 46.9787 53.9374 47.9495C53.3012 48.7347 52.8877 49.6051 52.6236 50.4447C52.5999 50.5187 52.5789 50.5924 52.558 50.6655C52.4964 50.8837 52.4424 51.0974 52.3969 51.3075C52.2479 52.0137 52.1904 52.6651 52.1739 53.1804C52.1538 53.8853 52.2086 54.3395 52.2086 54.3395C52.4893 53.7238 52.7837 53.159 53.0871 52.6303C53.8397 51.3196 54.6557 50.2636 55.4802 49.415C57.0867 47.7625 58.7231 46.8903 59.9915 46.4321C61.3616 45.9369 62.3007 45.92 62.3007 45.92Z" fill="#E1B27E"/>
<path d="M81.5988 43.6183L81.5448 43.5469C81.3628 43.3176 81.146 43.1052 80.8859 42.9277C80.2724 42.5056 79.4257 42.2857 78.2519 42.5261C78.2519 42.5261 76.8586 42.8554 76.0439 43.7669C76.0439 43.7669 78.4723 42.7296 81.0429 44.557C81.2771 44.7234 81.5122 44.9161 81.7469 45.1334C81.9865 45.3551 82.2252 45.6014 82.4634 45.8811C82.4634 45.8811 82.3612 44.7613 81.7233 43.7963C81.6849 43.7356 81.6425 43.6763 81.5988 43.6183Z" fill="#E1B27E"/>
<path d="M62.5942 61.4001C63.5248 61.1123 64.5331 60.8469 65.6128 60.6024C65.8006 59.7619 65.847 58.721 65.714 57.6097C65.4066 55.0034 64.2306 53.0069 63.0894 53.1479C61.9469 53.2889 61.2727 55.516 61.581 58.121C61.7363 59.4331 62.1124 60.5921 62.5942 61.4001Z" fill="#59473D"/>
<path d="M57.2975 3.07617L54.9031 3.61733L55.4054 8.00909L49.0226 4.76033L46.3953 5.54375L46.4363 5.59014L54.1897 14.4272L54.2638 14.3803L54.3637 14.3179C54.605 14.164 54.8468 14.0105 55.0904 13.8593C55.1757 13.8062 55.2604 13.7513 55.3456 13.6987C55.6972 13.4832 56.0492 13.2713 56.4025 13.0607L53.1092 9.28816L58.4382 11.8936L58.4583 11.8824C58.6189 11.7945 58.7782 11.7062 58.9384 11.6192L58.4472 7.81413L60.8652 10.611L60.8947 10.5967C61.0994 10.4936 61.2998 10.3959 61.501 10.2964L61.5639 10.2661L61.6616 10.217C61.6959 10.2005 61.7312 10.1831 61.7651 10.1657C61.8507 10.1242 61.9386 10.0796 62.0229 10.0386C62.0403 10.0296 62.0568 10.0225 62.0742 10.014C62.3611 9.87572 62.6426 9.74366 62.9241 9.61161L57.2975 3.07617Z" fill="#FACE56"/>
<path d="M54.9186 3.75614L54.903 3.61694L54.9186 3.75658V3.75614Z" fill="#4D94C3"/>
<path d="M54.9029 3.6169L55.2566 3.53749C54.6704 3.26535 53.974 3.07128 53.1678 2.9709C51.5533 2.76746 49.5033 2.95439 47.1678 3.55801C44.8322 4.15762 42.2134 5.16589 39.4362 6.54891C33.8814 9.31316 27.6975 13.5733 21.747 19.0019C19.6707 20.8953 17.7344 22.8297 15.9543 24.77L23.1822 33.6231C25.134 31.4691 27.2634 29.3272 29.5584 27.234C32.6269 24.4363 35.7556 21.9401 38.8491 19.771C41.8467 17.6711 44.8073 15.8883 47.6576 14.4459L46.4022 8.79297L46.4361 5.58972L46.3951 5.54332L49.0223 4.7599L54.1538 7.38541L54.0079 5.59775L54.9029 3.6169Z" fill="#4D94C3"/>
<path d="M54.9028 3.61694L54.0078 5.59778L54.1537 7.38545L55.4051 8.0087L54.9028 3.61694Z" fill="#141C26"/>
<path d="M53.1091 9.28833L58.4382 11.8938L56.4025 13.0609L53.1091 9.28833Z" fill="#141C26"/>
<path d="M58.447 7.81372L58.9382 11.6188L60.8651 10.6105L58.447 7.81372Z" fill="#141C26"/>
<path d="M78.6091 6.40716C78.9374 6.39422 79.2591 6.39065 79.5754 6.39734C80.4721 6.41563 81.3144 6.52137 82.1126 6.72079C82.1554 6.73194 82.2 6.73819 82.2424 6.74979L82.2522 6.75247L82.2834 6.75916L82.362 6.78191L82.4342 6.80377C82.3401 6.74131 82.2442 6.68242 82.1469 6.62487C81.2511 6.28179 80.303 6.05783 79.3278 5.93247C74.4908 5.31011 68.9841 7.07101 65.8349 8.32152C65.6622 8.3938 65.4882 8.46563 65.312 8.54058C65.0474 8.65345 64.7807 8.76855 64.5103 8.88767C64.0566 9.08754 63.5975 9.29678 63.1277 9.51538C63.0595 9.54661 62.9917 9.57918 62.9238 9.6113C62.6423 9.74336 62.3608 9.87541 62.0739 10.0137C62.0565 10.0222 62.04 10.0293 62.0226 10.0383C61.9383 10.0793 61.8504 10.1239 61.7648 10.1654C61.7309 10.1828 61.6956 10.2002 61.6613 10.2167L61.5636 10.2658L61.5007 10.2961C61.2995 10.3956 61.0991 10.4933 60.8944 10.5964L60.8649 10.6106C60.8587 10.6142 60.8524 10.6173 60.8466 10.6205C60.7958 10.6446 60.748 10.6682 60.6981 10.6932L60.6722 10.7057C60.6347 10.7249 60.5981 10.7445 60.5616 10.7637C60.2479 10.9225 59.9356 11.0867 59.6247 11.2513C59.407 11.3664 59.1901 11.4824 58.9729 11.5997L58.9381 11.6189C58.7779 11.7059 58.6186 11.7942 58.458 11.8821L58.4379 11.8933C57.9169 12.1815 57.3993 12.4755 56.8827 12.7775C56.8287 12.8088 56.7748 12.8386 56.7203 12.8708C56.6744 12.898 56.628 12.9247 56.5829 12.9515C56.5401 12.9765 56.4981 13.0028 56.4567 13.0278L56.4022 13.0604C56.0489 13.271 55.6969 13.4829 55.3453 13.6983C55.2601 13.751 55.1754 13.8059 55.0901 13.859C54.8466 14.0102 54.6047 14.1637 54.3634 14.3176L54.2635 14.38L54.1894 14.4269C53.5175 14.8574 52.851 15.2995 52.1876 15.7506C51.0932 16.4956 50.0109 17.2643 48.9437 18.0593C48.805 18.1624 48.6676 18.2672 48.5288 18.3716C45.7311 20.4778 43.0289 22.7379 40.44 25.0851C37.7065 27.5642 35.1019 30.1407 32.6415 32.7291C31.3089 34.0644 30.1641 35.261 29.2299 36.267C27.3557 38.2853 26.3336 39.5332 26.3755 39.5613C26.3925 39.5796 26.5576 39.4265 26.8502 39.1339C26.608 39.4149 26.3657 39.6956 26.1279 39.9753C30.2136 35.6192 34.745 31.1583 39.6106 26.9557C42.5662 24.4052 45.6419 21.9496 48.8193 19.6717V19.6721C50.2108 18.6732 51.6223 17.7096 53.0513 16.7869C53.5077 16.4912 53.9681 16.1994 54.429 15.9121C54.6587 15.7693 54.8907 15.6306 55.1214 15.4896C55.2512 15.4097 55.3819 15.329 55.5135 15.25C55.7602 15.101 56.0078 14.9547 56.255 14.8079C56.4977 14.6651 56.7395 14.5224 56.9827 14.3814C57.1102 14.3087 57.2374 14.2346 57.3645 14.1623C57.6728 13.9857 57.9833 13.813 58.2943 13.6408C58.479 13.5382 58.6655 13.4347 58.8511 13.3339L58.8529 13.333C59.4391 13.0135 60.0284 12.7053 60.6191 12.4023C60.6677 12.3769 60.7173 12.3524 60.7672 12.3274C60.8596 12.2801 60.9519 12.2332 61.0443 12.1864C61.167 12.1244 61.2883 12.0606 61.4114 11.9995C61.4583 11.9767 61.5033 11.9522 61.5497 11.929L61.5694 11.9201C61.6532 11.8786 61.7353 11.8393 61.8179 11.7992C61.8353 11.7907 61.8527 11.7826 61.8701 11.7742L61.8991 11.759C62.1578 11.6327 62.4148 11.5083 62.6682 11.386C62.7146 11.3646 62.7614 11.3401 62.8087 11.3182C62.8913 11.2781 62.9725 11.2415 63.0554 11.2022C63.3517 11.0626 63.647 10.9234 63.9379 10.7891C64.0182 10.753 64.0998 10.7128 64.1793 10.6771C64.2212 10.6579 64.2622 10.6396 64.3042 10.6209C64.3867 10.5839 64.4697 10.5468 64.5527 10.5094C64.8949 10.3546 65.2353 10.202 65.569 10.057C65.8741 9.92404 66.1704 9.80225 66.4684 9.67688C68.1512 8.96931 69.7332 8.37462 71.2032 7.90171C74.029 6.99561 76.4685 6.49906 78.6091 6.40716Z" fill="white"/>
</svg>
