<svg width="100" height="90" viewBox="0 0 100 90" fill="none" xmlns="http://www.w3.org/2000/svg">
<path d="M0 44.7926C0 52.3446 7.37432 59.3946 19.0006 63.3684C16.6789 75.0563 18.5845 84.4768 24.9493 88.1475C31.4916 91.9203 41.2382 89.3088 50.4889 81.2225C59.5063 88.9823 68.62 92.0362 74.9788 88.355C81.5148 84.5713 83.5029 74.5119 81.117 62.4591C93.2264 58.4555 100 52.444 100 44.7926C100 37.4158 92.612 31.0338 81.1426 27.0855C83.711 14.5345 81.5347 5.3427 74.9064 1.52036C68.5161 -2.16462 59.2966 1.04722 50.1466 9.01025C40.6276 0.55812 31.4991 -2.02242 24.8773 1.81106C18.4932 5.50652 16.6714 15.0981 19.0006 27.0025C7.7669 30.9192 0 37.4453 0 44.7926Z" fill="white"/>
<path d="M78.7134 31.0065C77.7921 30.6894 76.8375 30.3893 75.8545 30.1056C76.0161 29.4462 76.1644 28.7954 76.2962 28.1557C78.4603 17.6509 77.0453 9.18813 72.2136 6.40183C67.5807 3.73014 60.0038 6.51581 52.3515 13.1753C51.6157 13.8157 50.8778 14.4937 50.1402 15.2043C49.6487 14.7342 49.158 14.2798 48.6686 13.8453C40.6488 6.72447 32.6102 3.72366 27.7832 6.51802C23.1547 9.19746 21.784 17.1532 23.732 27.1087C23.9201 28.0703 24.14 29.0523 24.3887 30.0507C23.251 30.3737 22.1526 30.718 21.1017 31.0843C11.6994 34.3623 5.69458 39.4999 5.69458 44.8289C5.69458 50.3327 12.1407 55.8531 21.934 59.2005C22.7069 59.4646 23.5088 59.7144 24.3352 59.9515C24.067 61.0313 23.8336 62.0895 23.6378 63.1216C21.7804 72.9043 23.2309 80.6721 27.8471 83.3347C32.6152 86.0843 40.6175 83.258 48.4097 76.4467C49.0256 75.9083 49.6436 75.3373 50.2628 74.7388C51.0654 75.5117 51.8667 76.2431 52.6637 76.9291C60.2114 83.4241 67.6659 86.0468 72.2778 83.3769C77.0412 80.6193 78.5893 72.2748 76.5795 62.1224C76.426 61.347 76.2473 60.5549 76.0467 59.7487C76.6087 59.5825 77.1604 59.411 77.6983 59.2327C87.8794 55.8595 94.5035 50.4062 94.5035 44.8289C94.5035 39.4806 88.3051 34.3084 78.7134 31.0065Z" fill="#53C1DE"/>
<path d="M76.5052 55.6315C76.0195 55.7923 75.5213 55.9477 75.0135 56.0983C73.8896 52.5401 72.3727 48.7565 70.5163 44.8474C72.2878 41.0313 73.746 37.2961 74.8385 33.761C75.747 34.0239 76.6288 34.3011 77.4784 34.5937C85.6966 37.4229 90.7096 41.6058 90.7096 44.8289C90.7096 48.262 85.2958 52.7187 76.5052 55.6315ZM72.8576 62.8592C73.7464 67.3485 73.8733 71.4073 73.2846 74.5802C72.7557 77.4313 71.692 79.3322 70.3768 80.0935C67.578 81.7135 61.5928 79.6078 55.138 74.0532C54.398 73.4165 53.6526 72.7366 52.9049 72.017C55.4073 69.2802 57.9083 66.0985 60.3492 62.565C64.6424 62.184 68.6986 61.5612 72.3769 60.7109C72.5581 61.4417 72.719 62.1584 72.8576 62.8592ZM35.9715 79.8136C33.2371 80.7793 31.0592 80.807 29.7428 80.0479C26.9414 78.4321 25.7769 72.1953 27.3654 63.8291C27.5474 62.871 27.7639 61.8868 28.0135 60.8808C31.6516 61.6853 35.678 62.2642 39.9815 62.613C42.4389 66.0707 45.0121 69.2489 47.6052 72.0317C47.0386 72.5786 46.4743 73.0994 45.9131 73.59C42.4675 76.6019 39.0146 78.7388 35.9715 79.8136ZM23.161 55.6105C18.8306 54.1304 15.2544 52.2067 12.803 50.1076C10.6004 48.2212 9.48828 46.3485 9.48828 44.8289C9.48828 41.5951 14.3095 37.4703 22.3505 34.6668C23.3262 34.3266 24.3475 34.006 25.4074 33.7049C26.5187 37.3198 27.9765 41.0993 29.7358 44.9212C27.9538 48.7998 26.4753 52.6395 25.3531 56.2969C24.5975 56.0797 23.8654 55.8511 23.161 55.6105ZM27.4552 26.3801C25.7862 17.8505 26.8947 11.4161 29.684 9.80146C32.655 8.0814 39.225 10.5338 46.1494 16.6823C46.5921 17.0753 47.0364 17.4866 47.482 17.9122C44.9017 20.6828 42.3521 23.8371 39.9165 27.2744C35.7398 27.6615 31.7417 28.2834 28.0657 29.1162C27.8346 28.1865 27.6299 27.2731 27.4552 26.3801ZM65.7634 35.8394C64.8846 34.3215 63.9825 32.8395 63.0628 31.398C65.8963 31.7562 68.6112 32.2317 71.1607 32.8136C70.3952 35.2667 69.4412 37.8315 68.3183 40.4608C67.5127 38.9314 66.6606 37.3894 65.7634 35.8394ZM50.1414 20.6235C51.8913 22.5194 53.6438 24.636 55.3675 26.9326C53.6305 26.8506 51.872 26.8079 50.099 26.8079C48.3428 26.8079 46.5973 26.8496 44.8711 26.9302C46.5965 24.655 48.3641 22.5412 50.1414 20.6235ZM34.4194 35.8656C33.5415 37.3878 32.7053 38.9215 31.9124 40.458C30.8076 37.8378 29.8624 35.2613 29.0904 32.7735C31.6242 32.2064 34.3263 31.7428 37.1418 31.3914C36.2091 32.8462 35.2995 34.3391 34.4194 35.8653V35.8656ZM37.2229 58.537C34.3139 58.2124 31.5713 57.7727 29.038 57.2213C29.8224 54.689 30.7884 52.0575 31.9167 49.3809C32.7116 50.9163 33.5512 52.4506 34.4344 53.9761H34.4345C35.3342 55.5302 36.2662 57.0525 37.2229 58.537ZM50.2464 69.3017C48.4482 67.3616 46.6547 65.2155 44.903 62.9071C46.6034 62.9738 48.3371 63.0079 50.099 63.0079C51.9092 63.0079 53.6987 62.9671 55.46 62.8887C53.7306 65.2387 51.9844 67.3881 50.2464 69.3017ZM68.3545 49.2445C69.5415 51.95 70.5421 54.5678 71.3366 57.0569C68.7617 57.6443 65.9815 58.1174 63.0523 58.469C63.9742 57.008 64.8843 55.5006 65.7786 53.95C66.6832 52.3812 67.5422 50.8101 68.3545 49.2445ZM62.4923 52.0546C61.104 54.4617 59.6788 56.7595 58.2319 58.9285C55.5965 59.117 52.874 59.214 50.099 59.214C47.3353 59.214 44.6471 59.1282 42.0584 58.9602C40.5531 56.7627 39.0969 54.4581 37.7175 52.0754H37.7178C36.3421 49.6991 35.0759 47.3028 33.9285 44.9199C35.0755 42.5315 36.3384 40.1325 37.7063 37.7605L37.706 37.761C39.0775 35.3827 40.5209 33.0893 42.0122 30.9056C44.6534 30.706 47.3617 30.6018 50.0989 30.6018H50.099C52.8485 30.6018 55.5603 30.7067 58.2007 30.9081C59.6693 33.0759 61.1029 35.3618 62.4798 37.7405C63.8723 40.1458 65.1515 42.5288 66.3083 44.866C65.1549 47.2434 63.8786 49.6504 62.4923 52.0546ZM70.3186 9.68859C73.2925 11.4036 74.449 18.3202 72.5805 27.3899C72.4613 27.9687 72.3271 28.5581 72.1814 29.1555C68.4969 28.3054 64.4959 27.6727 60.307 27.2798C57.8667 23.8047 55.3379 20.6455 52.7997 17.9104C53.4821 17.2539 54.1636 16.6279 54.8422 16.0372C61.3987 10.3313 67.5266 8.07856 70.3186 9.68859Z" fill="white"/>
<path d="M50.0992 36.8986C54.4789 36.8986 58.0295 40.4491 58.0295 44.8289C58.0295 49.2087 54.4789 52.7593 50.0992 52.7593C45.7194 52.7593 42.1688 49.2087 42.1688 44.8289C42.1688 40.4491 45.7194 36.8986 50.0992 36.8986Z" fill="#53C1DE"/>
</svg>
