<svg width="100" height="26" viewBox="0 0 100 26" fill="none" xmlns="http://www.w3.org/2000/svg">
<path d="M60.3123 0.0849315L57.8877 19.6438L57.8822 19.6411L57.389 22.0603L57.5863 22.0658C60.1973 22.0329 62.0493 19.7425 62.4 16.8521L63.8027 5.62466C64.2247 2.20822 62.1863 0.0849315 60.3123 0.0849315ZM94.6877 10.6055C94.6877 10.6055 93.0164 15.8466 92.8877 16.2877C92.8411 15.8466 91.6192 6.43288 91.6192 6.43288C88.7726 6.43288 87.2493 8.45479 86.4466 10.6055C86.4466 10.6055 84.4137 15.863 84.2493 16.3041C84.2411 15.8904 83.937 10.6603 83.937 10.6603C83.7644 8.03288 81.3644 6.4411 79.4192 6.4411L81.7562 20.7041C84.7425 20.6959 86.3425 18.6767 87.1863 16.5315C87.1863 16.5315 88.9753 11.8932 89.0493 11.6822C89.0685 11.8822 90.3342 20.7041 90.3342 20.7041C93.3233 20.7041 94.937 18.8137 95.8055 16.7452L100 6.43836C97.0438 6.43836 95.4904 8.45753 94.6877 10.6055ZM73.9342 13.3452C73.7616 15.0932 72.9918 17.7315 70.8849 17.7315C68.7699 17.7315 69.0712 14.6329 69.2767 13.1644C69.4959 11.589 70.3808 9.35616 72.2657 9.35616C73.9671 9.35616 74.1288 11.3726 73.9342 13.3452ZM72.5836 6.19178C69.2548 6.19178 66.1178 8.6411 65.1534 12.4959C64.189 16.3479 65.6548 20.8986 70.5479 20.8986C75.4411 20.8986 78.2521 16.1589 78.2521 12.2192C78.2521 8.27945 75.589 6.19178 72.5836 6.19178ZM57.5945 6.4411H54.7068L54.7205 6.29041C54.9178 4.40548 55.3699 3.4137 56.8301 3.26301C57.8274 3.1589 58.2795 2.6411 58.3836 2.07945C58.4658 1.63836 58.7452 0.0849315 58.7452 0.0849315C52.9507 0.0520548 51.1342 2.55342 50.6712 6.35342L50.6603 6.4411H50.6027C49.663 6.4411 48.6301 7.50685 48.4493 8.85753L48.3863 9.35616H50.3123L48.6959 22.7425L48.2055 25.1479L48.4027 25.1534C51.1068 25.0521 52.8493 22.9178 53.2329 19.811L54.4959 9.35342H55.4C56.2849 9.35342 57.3288 8.46575 57.5205 6.98082L57.5945 6.4411ZM42.8822 13.4603C42.4548 15.9781 41.0548 17.674 39.7014 17.674C38.337 17.674 37.7589 17.0712 37.7589 17.0712C38.0137 14.8712 38.1836 13.5205 38.6794 12.3589C39.1781 11.1973 40.3507 9.34247 41.5781 9.34247C42.7753 9.34247 43.3096 10.9452 42.8822 13.4603ZM43.263 6.10685C41.4247 6.10685 40.0082 7.10411 38.8164 8.58082L38.8192 8.56986L39.8767 0C37.4301 0 35.4329 2.12877 35.0521 5.29041L33.1918 20.5945C34.6027 20.5945 36.0986 20.1863 36.9069 19.1479C37.6274 20.0767 38.7014 20.8164 40.2904 20.8164C44.4164 20.8164 47.2521 16.0219 47.2521 11.5178C47.2521 7.40548 45.2521 6.10685 43.263 6.10685ZM15.2685 10.6055C15.2685 10.6055 13.5973 15.8466 13.4685 16.2877C13.4219 15.8466 12.2 6.43288 12.2 6.43288C9.35342 6.43288 7.83014 8.45479 7.0274 10.6055C7.0274 10.6055 4.99452 15.863 4.83014 16.3041C4.82192 15.8904 4.51781 10.6603 4.51781 10.6603C4.34521 8.03014 1.94521 6.43836 0 6.43836L2.33973 20.7014C5.32603 20.6931 6.92603 18.674 7.76986 16.5288C7.76986 16.5288 9.5589 11.8904 9.63288 11.6795C9.65205 11.8795 10.9178 20.7014 10.9178 20.7014C13.9068 20.7014 15.5205 18.811 16.389 16.7425L20.5808 6.43836C17.6247 6.43836 16.0712 8.45753 15.2685 10.6055ZM28.4329 10.1288C28.3836 10.6822 28.1562 11.6411 24.2219 12.1671C25.0521 9.22192 26.6329 9.00274 27.3644 9.00274C28.0493 9.00274 28.4849 9.53425 28.4329 10.1288ZM32.2849 9.8274C32.2849 8.03014 30.5452 6.12603 27.526 6.12603C24.1342 6.12603 20.4137 8.60822 19.8384 13.5699C19.2575 18.5863 22.3808 20.8027 25.5178 20.8027C28.6548 20.8027 30.3068 19.5808 31.9836 17.9425C30.5342 16.1205 28.6685 16.9671 28.3151 17.1452C27.9233 17.3397 27.4137 17.611 26.3726 17.611C25.1562 17.611 23.9233 17.0603 23.9233 14.8055C31.6904 14.0603 32.2849 11.6247 32.2849 9.8274Z" fill="#2E76BF"/>
</svg>
