<svg width="100" height="100" viewBox="0 0 100 100" fill="none" xmlns="http://www.w3.org/2000/svg">
<path d="M7.10669 49.9982C7.10669 66.9769 16.9736 81.6488 31.28 88.602L10.8204 32.5419C8.44113 37.8762 7.10669 43.7794 7.10669 49.9982Z" fill="#00749A"/>
<path d="M78.9559 47.8328C78.9559 42.5312 77.0526 38.8606 75.4181 36.0038C73.2458 32.4712 71.2079 29.4782 71.2079 25.9456C71.2079 22.0026 74.1975 18.332 78.4094 18.332C78.5991 18.332 78.7801 18.3562 78.9663 18.3665C71.3321 11.3754 61.1652 7.10657 49.9983 7.10657C35.0126 7.10657 21.8303 14.7942 14.1616 26.4404C15.1685 26.4714 16.1185 26.4904 16.9219 26.4904C21.4079 26.4904 28.3542 25.9456 28.3542 25.9456C30.6662 25.8094 30.9386 29.2058 28.6301 29.4782C28.6301 29.4782 26.306 29.7523 23.7199 29.8868L39.3401 76.3473L48.7277 48.1948L42.0434 29.8868C39.7332 29.7506 37.5453 29.4782 37.5453 29.4782C35.2333 29.342 35.5057 25.8094 37.816 25.9456C37.816 25.9456 44.8985 26.4904 49.1139 26.4904C53.5999 26.4904 60.5445 25.9456 60.5445 25.9456C62.8582 25.8094 63.1306 29.2058 60.8204 29.4782C60.8204 29.4782 58.4928 29.7523 55.9119 29.8868L71.4131 75.9956L75.6871 61.6995C77.5439 55.767 78.9559 51.505 78.9559 47.8328Z" fill="#00749A"/>
<path d="M50.7516 53.75L37.8831 91.1435C41.726 92.2745 45.788 92.8917 49.9999 92.8917C54.9945 92.8917 59.784 92.0263 64.2442 90.4608C64.127 90.278 64.0235 90.0832 63.9391 89.8694L50.7516 53.75Z" fill="#00749A"/>
<path d="M87.6349 29.4198C87.8194 30.7853 87.9228 32.2542 87.9228 33.83C87.9228 38.1833 87.1108 43.0762 84.6608 49.1933L71.5596 87.073C84.3126 79.637 92.8899 65.822 92.8899 49.9984C92.8899 42.5418 90.9848 35.5282 87.6349 29.4198Z" fill="#00749A"/>
<path d="M49.9983 0C22.4303 0 0 22.4285 0 49.9983C0 77.5697 22.4285 100 49.9983 100C77.5663 100 100 77.5715 100 49.9983C100 22.4285 77.568 0 49.9983 0ZM49.9983 97.7052C23.6957 97.7052 2.29302 76.3043 2.29302 49.9983C2.29302 23.694 23.694 2.29302 49.9983 2.29302C76.3025 2.29302 97.7035 23.6923 97.7035 49.9965C97.7035 76.3043 76.3025 97.7052 49.9983 97.7052Z" fill="#00749A"/>
</svg>
